<?xml version="1.0" encoding="UTF-8" standalone="no"?>
<!-- Created with Inkscape (http://www.inkscape.org/) -->

<svg
   xmlns:dc="http://purl.org/dc/elements/1.1/"
   xmlns:cc="http://creativecommons.org/ns#"
   xmlns:rdf="http://www.w3.org/1999/02/22-rdf-syntax-ns#"
   xmlns:svg="http://www.w3.org/2000/svg"
   xmlns="http://www.w3.org/2000/svg"
   xmlns:sodipodi="http://sodipodi.sourceforge.net/DTD/sodipodi-0.dtd"
   xmlns:inkscape="http://www.inkscape.org/namespaces/inkscape"
   version="1.1"
   id="svg1945"
   width="460"
   height="460"
   viewBox="0 0 460 460"
   sodipodi:docname="19251628.png"
   inkscape:version="0.0">
  <metadata
     id="metadata1951">
    <rdf:RDF>
      <cc:Work
         rdf:about="">
        <dc:format>image/svg+xml</dc:format>
        <dc:type
           rdf:resource="http://purl.org/dc/dcmitype/StillImage" />
        <dc:title></dc:title>
      </cc:Work>
    </rdf:RDF>
  </metadata>
  <defs
     id="defs1949" />
  <sodipodi:namedview
     pagecolor="#ffffff"
     bordercolor="#666666"
     borderopacity="1"
     objecttolerance="10"
     gridtolerance="10"
     guidetolerance="10"
     inkscape:pageopacity="0"
     inkscape:pageshadow="2"
     inkscape:window-width="1680"
     inkscape:window-height="995"
     id="namedview1947"
     showgrid="false"
     inkscape:zoom="1.4511061"
     inkscape:cx="128.75294"
     inkscape:cy="220.88322"
     inkscape:window-x="0"
     inkscape:window-y="0"
     inkscape:window-maximized="1"
     inkscape:current-layer="svg1945" />
  <g
     id="g1955"
     transform="translate(-1.3782602,-0.68912912)">
    <path
       style="fill:#fdfefe"
       d="M 0,230 V 0 H 230 460 V 230 460 H 230 0 Z"
       id="path1991"
       inkscape:connector-curvature="0" />
    <path
       style="fill:#9fd8f8"
       d="m 203.5,458.82811 c -12.7457,-1.08435 -18.8276,-2.17711 -30,-5.39021 -22.28732,-6.40968 -45.27789,-17.20405 -63.43512,-29.78361 C 97.38791,414.87153 74.687778,394.01049 70.17917,387 69.294876,385.625 66.71229,382.25 64.440091,379.5 58.272985,372.03607 43,348.36352 43,346.26867 43,345.95733 41.673092,342.95701 40.051315,339.6013 31.475086,321.85572 24.491233,298.06868 22.277335,279.06305 16.086562,225.91716 27.177015,177.56778 55.322733,135 c 8.150633,-12.32707 19.408003,-25.97862 27.551283,-33.41078 2.464267,-2.24907 6.088223,-5.588476 8.053235,-7.420899 9.141729,-8.524893 22.030599,-17.828986 36.287009,-26.194503 4.94068,-2.899139 6.12901,-4.221339 8.77789,-9.766732 7.6662,-16.049059 22.15345,-29.678408 41.11301,-38.678378 8.53638,-4.052158 20.50909,-6.506476 46.2811,-9.487288 17.839,-2.0632744 19.71242,-2.4542904 28.40076,-5.927753 C 254.69488,2.9511502 258.91626,2 261.16786,2 h 4.09382 l -0.5537,3.4121012 -0.55371,3.4121013 4.73079,-2.4544222 C 274.55483,3.4281972 277,3.9838845 277,8.2139776 c 0,2.4448414 0.32343,2.8758884 1.74777,2.3293184 3.62185,-1.3898356 11.3885,-2.7049807 12.79256,-2.1661939 1.903,0.7302482 1.85503,4.4324279 -0.11863,9.1560649 l -1.57831,3.777415 4.32831,3.802072 c 2.38056,2.091139 4.64966,3.821258 5.04243,3.844709 1.45483,0.08686 15.77894,13.687325 18.73045,17.784208 1.68066,2.332863 4.43001,7.315029 6.10965,11.071479 2.72943,6.104259 3.65907,7.184978 8.74983,10.171873 14.23387,8.351409 27.13073,17.662022 36.26869,26.183398 1.96501,1.832423 5.58897,5.171829 8.05323,7.420899 14.80444,13.51162 33.66961,40.04209 42.60111,59.91078 13.98196,31.10373 19.86657,58.45084 19.58158,91 -0.27985,31.96193 -6.72442,60.95631 -19.35999,87.1013 -1.62177,3.35571 -2.94868,6.35603 -2.94868,6.66737 0,2.09485 -15.27298,25.7674 -21.44009,33.23133 -2.2722,2.75 -4.85479,6.125 -5.73908,7.5 -4.50861,7.01049 -27.20874,27.87153 -39.88571,36.65429 -22.16763,15.35802 -54.87383,29.3415 -77.93512,33.32104 -16.52014,2.85078 -47.05983,3.67681 -68.5,1.85278 z m 143.47064,-45.51898 c 0.29115,-0.32062 -0.008,-0.7754 -0.66441,-1.01063 -0.65658,-0.23522 -2.85595,-1.74862 -4.88751,-3.36309 C 339.38717,407.32093 337.05966,406 336.24647,406 c -1.29117,0 -9.94262,5.63211 -12.74647,8.29797 -0.63304,0.60189 3.39275,0.70186 10.97064,0.27244 6.58384,-0.37309 12.20884,-0.94067 12.5,-1.26128 z M 254.14278,233.01107 c 1.64391,-1.64392 2.70774,-3.44392 2.36406,-4 -0.68234,-1.10406 -49.70965,-1.47493 -50.80029,-0.38429 -1.01153,1.01153 2.10552,6.17942 4.02986,6.68128 0.96997,0.25296 10.68571,0.51214 21.59051,0.57594 L 251.15385,236 Z"
       id="path1989"
       inkscape:connector-curvature="0" />
    <path
       style="fill:#64c7fd"
       d="m 201.5,458.33493 c -7.15,-0.76258 -17.05,-2.53593 -22,-3.94079 -4.95,-1.40486 -11.25,-3.14101 -14,-3.8581 C 147.83368,445.92938 117.76454,429.64065 98.858692,414.43583 89.312886,406.75872 72.053679,389.34317 70.424683,385.74425 69.617029,383.95991 67.397753,380.475 65.492958,378 57.492584,367.6047 45,348.19456 45,346.15942 45,345.78798 43.932282,343.46267 42.627292,340.99204 41.322303,338.52142 38.414022,331.775 36.164445,326 17.495587,278.07426 17.646464,221.53497 36.568157,174.71424 48.524842,145.12805 61.364962,125.7688 83.722725,103.61856 99.000373,88.482715 109.02374,80.72681 127.47857,69.761058 c 3.90173,-2.318386 5.17335,-3.930624 8.28161,-10.5 7.90157,-16.700109 20.95721,-29.386355 39.6353,-38.513865 11.26524,-5.505041 20.33966,-7.307722 58.68148,-11.6573867 5.28832,-0.5999306 11.57889,-2.165506 16.4062,-4.0831156 4.45851,-1.7711125 9.16121,-2.9802133 10.92304,-2.8083993 2.82386,0.2753837 3.07165,0.5852796 2.83999,3.5517086 -0.13959,1.7875 -0.0528,3.25 0.19284,3.25 0.24566,0 2.02913,-0.933688 3.96328,-2.0748622 4.71698,-2.7830879 8.00094,-2.2660056 8.41411,1.3248622 0.37277,3.239681 0.006,3.183855 7.35957,1.1205821 8.59877,-2.4126909 10.87891,0.2430543 7.07401,8.2393119 l -1.75,3.677748 4.41056,3.606179 c 20.12848,16.457539 25.40249,22.377426 30.49157,34.225667 2.70481,6.297263 3.86394,7.820826 7.89752,10.380512 84.49663,52.09675 128.05004,188.67378 85.07306,271.49204 -1.30499,2.47063 -2.37271,4.79594 -2.37271,5.16738 0,2.03514 -12.49258,21.44528 -20.49296,31.84058 -1.90479,2.475 -4.12407,5.95991 -4.93172,7.74425 -1.629,3.59892 -18.88821,21.01447 -28.43401,28.69158 -18.9102,15.20831 -49.00085,31.50742 -66.64131,36.09739 -2.75,0.71554 -8.87661,2.41645 -13.61469,3.77981 -17.90003,5.15062 -52.40953,6.89898 -79.38531,4.0219 z"
       id="path1997"
       inkscape:connector-curvature="0"
       sodipodi:nodetypes="ssssssscssssssscscscccscssccsccsscs" />
    <path
       style="fill:#64c7fd"
       d="m 347.5,413.77565 c 0.66336,-0.65195 0.37538,-1.36872 -0.85548,-2.12922 -1.02051,-0.63054 -3.44489,-2.38393 -5.3875,-3.89643 -1.94262,-1.5125 -4.08442,-2.75 -4.75955,-2.75 -1.73125,0 -12.67247,7.56133 -13.76431,9.51232 -0.82158,1.4681 0.23901,1.55459 11.43062,0.93219 6.78492,-0.37734 12.78622,-1.12832 13.33622,-1.66886 z"
       id="path1995" />
    <path
       style="fill:#ffffff"
       d="M 254.4298,233.47748 C 259.5386,228.7428 258.3957,228.5 231,228.5 c -27.35146,0 -28.37538,0.21552 -23.61932,4.97159 L 209.90909,236 h 20.89943 20.89943 z"
       id="path1987" />
    <path
       style="fill:#63b3de"
       d="m 201.5,458.33493 c -7.15,-0.76258 -17.05,-2.53593 -22,-3.94079 -4.95,-1.40486 -11.25,-3.14101 -14,-3.8581 -17.65654,-4.60411 -47.65504,-20.85156 -66.653707,-36.10021 -9.732847,-7.81175 -27.732723,-26.13515 -28.439326,-28.95048 -0.656976,-2.6176 3.499112,-10.59698 9.516581,-18.27113 C 85.07314,360.64689 106.69924,340 108.42845,340 c 0.32388,0 2.30149,-1.2375 4.3947,-2.75 9.20826,-6.65366 31.01681,-15.58641 42.34337,-17.34379 3.86726,-0.60002 8.5474,-1.72439 10.40031,-2.49858 3.89554,-1.62766 11.02856,-1.87132 11.93317,-0.40763 0.83542,1.35175 8.21119,1.27631 9.05725,-0.0926 0.3714,-0.60094 0.35669,-7.46574 -0.0327,-15.2551 l -0.70798,-14.16247 -6.65829,-3.94641 C 154.80493,269.109 138.39447,245.3684 131.9589,215.2612 c -1.03131,-4.82473 -1.45673,-5.38782 -5.38235,-7.12431 -5.32624,-2.35605 -9.11925,-6.38014 -11.23728,-11.92188 -1.40726,-3.68201 -1.56043,-7.44945 -1.08851,-26.77287 0.61016,-24.98414 0.79445,-25.71266 7.36716,-29.1236 l 3.74274,-1.9423 0.12411,-21.43812 c 0.10128,-17.494519 0.53259,-23.645553 2.34471,-33.43812 5.36681,-29.001984 21.17355,-49.855486 47.566,-62.752807 11.26524,-5.505041 20.33966,-7.307722 58.68148,-11.6573867 5.28832,-0.5999306 11.57889,-2.165506 16.4062,-4.0831156 4.45851,-1.7711125 9.16121,-2.9802133 10.92304,-2.8083993 2.82386,0.2753837 3.07165,0.5852796 2.83999,3.5517086 -0.13959,1.7875 -0.0528,3.25 0.19284,3.25 0.24566,0 2.02913,-0.933688 3.96328,-2.0748622 4.71698,-2.7830879 8.00094,-2.2660056 8.41411,1.3248622 0.37277,3.239681 0.006,3.183855 7.35957,1.1205821 8.59877,-2.4126909 10.87891,0.2430543 7.07401,8.2393119 l -1.75,3.677748 4.41056,3.606179 c 11.77012,9.623538 20.54058,17.762409 23.69746,21.990924 5.85229,7.838912 11.28607,21.39477 13.07363,32.615255 1.76952,11.107302 2.34389,41.2794 0.97085,51 l -0.84751,6 5.63753,2.84626 c 8.72253,4.40382 8.67556,4.25192 9.30672,30.09588 0.47192,19.32342 0.31875,23.09086 -1.08851,26.77287 -2.11803,5.54174 -5.91104,9.56583 -11.23728,11.92188 -3.92562,1.73649 -4.35104,2.29958 -5.38235,7.12431 -6.43557,30.1072 -22.84603,53.8478 -47.19938,68.28219 l -6.65829,3.94641 -0.70798,14.16247 c -0.38939,7.78936 -0.4041,14.65416 -0.0327,15.2551 0.84606,1.36894 8.22183,1.44438 9.05725,0.0926 0.91998,-1.48856 8.06426,-1.2089 12.09027,0.47327 1.93932,0.8103 5.86237,1.77859 8.71788,2.15175 11.12108,1.45332 35.61663,11.37641 44.37513,17.97626 1.7508,1.3193 3.49609,2.39872 3.87842,2.39872 1.72035,0 21.73035,19.08827 27.76979,26.49061 7.41553,9.08897 11.04324,15.88022 10.22476,19.14129 -0.67683,2.69672 -18.89816,21.17555 -28.40254,28.80393 -19.00303,15.25216 -49.02301,31.50996 -66.65371,36.09739 -2.75,0.71554 -8.87661,2.41645 -13.61469,3.77981 -17.90003,5.15062 -52.40953,6.89898 -79.38531,4.0219 z m 146,-44.55928 c 0.66336,-0.65195 0.37538,-1.36872 -0.85548,-2.12922 -1.02051,-0.63054 -3.44489,-2.38393 -5.3875,-3.89643 -1.94262,-1.5125 -4.08442,-2.75 -4.75955,-2.75 -1.73125,0 -12.67247,7.56133 -13.76431,9.51232 -0.82158,1.4681 0.23901,1.55459 11.43062,0.93219 6.78492,-0.37734 12.78622,-1.12832 13.33622,-1.66886 z M 254.4298,233.47748 C 259.5386,228.7428 258.3957,228.5 231,228.5 c -27.35146,0 -28.37538,0.21552 -23.61932,4.97159 L 209.90909,236 h 20.89943 20.89943 z"
       id="path1985"
       inkscape:connector-curvature="0" />
    <path
       style="fill:#a1a2a0"
       d="m 201.5,458.33493 c -7.15,-0.76258 -17.05,-2.53593 -22,-3.94079 -4.95,-1.40486 -11.25,-3.14101 -14,-3.8581 -13.22025,-3.44731 -35.85418,-14.65758 -54,-26.74546 -11.45985,-7.63399 -28.15238,-22.22792 -36.09802,-31.55973 -6.179519,-7.25758 -6.20734,-6.81893 1.164536,-18.3608 5.900207,-9.23774 24.582714,-27.94528 33.933484,-33.97895 15.15384,-9.77816 32.39147,-16.92988 45.79299,-18.99905 3.96385,-0.61202 8.42216,-1.7381 9.90735,-2.5024 3.13189,-1.61173 9.39787,-1.84878 10.29966,-0.38965 0.86821,1.40479 8.8502,1.2498 10.3,-0.2 1.26083,-1.26083 1.76936,-26.1527 0.59672,-29.20855 -0.3318,-0.86467 -3.3693,-3.24703 -6.75,-5.29414 -13.07948,-7.92001 -20.59429,-14.85198 -31.21859,-28.79731 -6.59466,-8.65607 -12.39902,-22.72906 -17.11656,-41.5 -0.68514,-2.72617 -1.75648,-3.90839 -4.8456,-5.34712 -5.559,-2.58905 -9.15357,-6.26801 -11.09744,-11.35795 -1.44326,-3.77914 -1.59327,-7.38278 -1.11777,-26.85279 0.4495,-18.40586 0.84382,-22.93754 2.17227,-24.96501 0.89269,-1.36242 2.23785,-2.47713 2.98924,-2.47713 0.75139,0 2.39218,-0.83082 3.6462,-1.84626 2.23678,-1.81124 2.28351,-2.26181 2.46318,-23.75 0.15853,-18.960679 0.52917,-23.679235 2.7585,-35.117864 5.73284,-29.415137 19.55367,-47.558673 46.11533,-60.538683 11.26524,-5.505041 20.33966,-7.307722 58.68148,-11.6573867 5.28832,-0.5999306 11.57889,-2.165506 16.4062,-4.0831156 4.45851,-1.7711125 9.16121,-2.9802133 10.92304,-2.8083993 2.82386,0.2753837 3.07165,0.5852796 2.83999,3.5517086 -0.13959,1.7875 -0.0528,3.25 0.19284,3.25 0.24566,0 2.02913,-0.933688 3.96328,-2.0748622 4.71698,-2.7830879 8.00094,-2.2660056 8.41411,1.3248622 0.37277,3.239681 0.006,3.183855 7.35957,1.1205821 4.68117,-1.3134673 6.09969,-1.3866768 7.31561,-0.3775553 1.87665,1.5574802 1.87998,4.7329882 0.008,8.0069732 -0.78602,1.375 -1.44508,3.043333 -1.46456,3.707407 -0.0195,0.664074 3.22706,3.782486 7.21456,6.929805 23.46378,18.519877 29.89183,29.875854 33.31928,58.862788 1.58571,13.410804 1.5955,16.58419 0.14293,46.34842 -0.21155,4.33499 -0.19422,4.35818 5.61135,7.50576 3.20296,1.73654 6.28677,3.98504 6.85291,4.99667 0.56895,1.01665 1.27369,11.84469 1.57565,24.20925 0.47272,19.35599 0.32173,22.95801 -1.12065,26.73483 -1.94387,5.08994 -5.53844,8.7689 -11.09744,11.35795 -3.08912,1.43873 -4.16046,2.62095 -4.8456,5.34712 -4.71754,18.77094 -10.5219,32.84393 -17.11656,41.5 -10.6243,13.94533 -18.13911,20.8773 -31.21859,28.79731 -3.3807,2.04711 -6.4182,4.42947 -6.75,5.29414 -1.17264,3.05585 -0.66411,27.94772 0.59672,29.20855 1.4498,1.4498 9.43179,1.60479 10.3,0.2 0.90179,-1.45913 7.16777,-1.22208 10.29966,0.38965 1.48519,0.7643 5.9435,1.89038 9.90735,2.5024 13.083,2.01999 30.94985,9.40423 45.50234,18.80578 13.81382,8.92434 35.70411,33.05377 39.82901,43.90307 1.41184,3.7134 -7.3971,13.41325 -28.03836,30.87407 -16.28992,13.77994 -48.9593,31.49424 -66.5,36.05825 -2.75,0.71554 -8.87661,2.41645 -13.61469,3.77981 -17.90003,5.15062 -52.40953,6.89898 -79.38531,4.0219 z m 146,-44.55928 c 0.66336,-0.65195 0.37538,-1.36872 -0.85548,-2.12922 -1.02051,-0.63054 -3.44489,-2.38393 -5.3875,-3.89643 -1.94262,-1.5125 -4.08442,-2.75 -4.75955,-2.75 -1.73125,0 -12.67247,7.56133 -13.76431,9.51232 -0.82158,1.4681 0.23901,1.55459 11.43062,0.93219 6.78492,-0.37734 12.78622,-1.12832 13.33622,-1.66886 z M 254.4298,233.47748 C 259.5386,228.7428 258.3957,228.5 231,228.5 c -27.35146,0 -28.37538,0.21552 -23.61932,4.97159 L 209.90909,236 h 20.89943 20.89943 z"
       id="path1983"
       inkscape:connector-curvature="0" />
    <path
       style="fill:#ce895a"
       d="m 210,459.01298 c -3.025,-0.46392 -10,-1.52304 -15.5,-2.35361 -5.5,-0.83056 -14.05,-2.71994 -19,-4.19861 -4.95,-1.47866 -9.9,-2.89986 -11,-3.15822 -10.49452,-2.46481 -37.84429,-16.24565 -53.75115,-27.08379 C 96.454633,412.47938 72.58014,390.09558 71.363689,385.29274 69.79635,379.10452 95.003894,349.85433 110.5,339.87997 c 15.2087,-9.78938 32.40912,-16.92148 45.79299,-18.98792 3.96385,-0.61202 8.47157,-1.76365 10.01715,-2.55918 3.40226,-1.7512 10.31168,-1.42726 9.92382,0.46526 -0.20059,0.97876 1.27557,1.22479 6,1 L 188.5,319.5 l 0.27598,-15.86623 c 0.18803,-10.80992 -0.0883,-16.30519 -0.86717,-17.24365 -0.62874,-0.75758 -3.67793,-2.80901 -6.77598,-4.55873 -7.58471,-4.28369 -11.22021,-7.12678 -19.14582,-14.97265 -7.73693,-7.6591 -11.10372,-12.21944 -17.24516,-23.35874 -4.07183,-7.38547 -8.62135,-20.06567 -10.22549,-28.5 -1.19664,-6.29176 -1.52082,-6.7352 -6.40885,-8.76657 -5.25327,-2.18317 -9.16475,-6.56014 -11.00597,-12.31578 -1.76733,-5.52466 -1.33818,-46.74327 0.51711,-49.66765 0.7851,-1.2375 2.04223,-2.25 2.79362,-2.25 0.75139,0 2.39218,-0.83082 3.6462,-1.84626 2.23678,-1.81124 2.28351,-2.26181 2.46318,-23.75 0.15896,-19.011551 0.52622,-23.664919 2.78144,-35.241875 1.42907,-7.335975 3.03113,-13.860975 3.56013,-14.5 0.529,-0.639026 2.84143,-4.879806 5.13873,-9.423956 9.94788,-19.677273 32.38529,-36.688033 54.35433,-41.208338 10.1694,-2.092435 27.78717,-4.546286 39.85165,-5.550646 4.93342,-0.410704 11.65478,-2.0080481 18.67271,-4.4376019 11.65799,-4.0359113 13.78326,-3.917713 12.03918,0.6695668 -1.51634,3.9882721 -0.0682,4.5661291 4.59469,1.8334765 C 269.9024,7.1449649 272.84476,6 274.05307,6 c 1.90131,0 2.11724,0.3984674 1.60468,2.9612265 -0.32573,1.6286745 -0.23355,3.1829075 0.20484,3.4538505 0.4384,0.270944 3.85153,-0.423732 7.58475,-1.543724 8.68726,-2.6062401 9.56511,-1.8942686 6.99332,5.671832 l -1.90326,5.599276 2.4813,1.977563 c 1.36472,1.087659 4.81338,3.747327 7.6637,5.910372 2.85031,2.163045 8.29202,6.999547 12.09267,10.747781 5.72947,5.650443 7.81456,8.686673 12.2022,17.768398 4.98015,10.308134 5.40588,11.807652 7.22643,25.453425 1.86732,13.996352 1.93731,20.62561 0.51585,48.86097 -0.21805,4.33118 -0.18199,4.38094 5.28045,7.28552 3.025,1.6085 6.00879,3.59612 6.63065,4.41694 1.57675,2.08121 1.80256,44.5554 0.26247,49.37039 -1.83589,5.7398 -5.75206,10.1184 -11.00063,12.29961 -4.88803,2.03137 -5.21221,2.47481 -6.40885,8.76657 -1.60414,8.43433 -6.15366,21.11453 -10.22549,28.5 -6.14144,11.1393 -9.50823,15.69964 -17.24516,23.35874 -7.92561,7.84587 -11.56111,10.68896 -19.14582,14.97265 -3.09805,1.74972 -6.14724,3.80115 -6.77598,4.55873 -0.77885,0.93846 -1.0552,6.43373 -0.86717,17.24365 L 271.5,319.5 l 6.26604,0.29813 c 4.72443,0.22479 6.20059,-0.0212 6,-1 -0.38786,-1.89252 6.52156,-2.21646 9.92382,-0.46526 1.54558,0.79553 6.0533,1.94716 10.01715,2.55918 13.0647,2.01716 30.9035,9.38545 45.50234,18.79465 15.77734,10.16877 41.00998,39.35592 39.42696,45.60604 -1.21645,4.80284 -25.09094,27.18664 -39.38516,36.92601 -27.79503,18.93816 -55.41187,29.95011 -88.75115,35.38868 -11.27968,1.84003 -42.07753,2.69722 -50.5,1.40555 z m 133.42127,-42.87151 c 3.2567,-0.35281 6.09222,-1.1605 6.30114,-1.79487 C 350.28378,412.64204 339.21132,404 336.46601,404 c -2.84862,0 -14.80543,8.80841 -15.27639,11.2539 -0.29952,1.5553 0.57325,1.73424 7.98706,1.63757 4.57782,-0.0597 10.98789,-0.3972 14.24459,-0.75 z m -88.498,-181.73036 c 3.34095,-2.81122 4.00648,-5.84035 1.49494,-6.80412 C 255.54823,227.27314 244.11003,227 231,227 c -13.11003,0 -24.54823,0.27314 -25.41821,0.60699 -2.36345,0.90694 -1.91372,3.78836 1.05457,6.75665 L 209.27273,237 h 21.28691 21.28691 z"
       id="path1981"
       inkscape:connector-curvature="0" />
    <path
       style="fill:#f15466"
       d="m 210,459.01298 c -3.025,-0.46392 -10,-1.52304 -15.5,-2.35361 -5.5,-0.83056 -14.05,-2.71994 -19,-4.19861 -4.95,-1.47866 -9.9,-2.89986 -11,-3.15822 -10.49452,-2.46481 -37.84429,-16.24565 -53.75115,-27.08379 C 96.454633,412.47938 72.58014,390.09558 71.363689,385.29274 69.79635,379.10452 95.003894,349.85433 110.5,339.87997 c 15.2087,-9.78938 32.40912,-16.92148 45.79299,-18.98792 3.96385,-0.61202 8.47157,-1.76365 10.01715,-2.55918 3.64828,-1.87784 9.92904,-1.40057 10.24125,0.77822 0.12698,0.88609 -0.10207,3.43179 -0.509,5.6571 -0.99523,5.44251 0.64813,9.00714 7.15551,15.52101 C 193.476,350.57756 211.84772,357 231,357 c 21.75228,0 42.93431,-8.63971 51.50558,-21.00806 2.3411,-3.37821 2.51891,-4.27339 1.8113,-9.11894 -1.32635,-9.08252 -1.25103,-9.3357 2.87979,-9.67978 2.02568,-0.16873 4.94761,0.34411 6.49319,1.13965 1.54558,0.79553 6.0533,1.94716 10.01715,2.55918 13.0647,2.01716 30.9035,9.38545 45.50234,18.79465 15.77734,10.16877 41.00998,39.35592 39.42696,45.60604 -1.21645,4.80284 -25.09094,27.18664 -39.38516,36.92601 -27.79503,18.93816 -55.41187,29.95011 -88.75115,35.38868 -11.27968,1.84003 -42.07753,2.69722 -50.5,1.40555 z m 133.42127,-42.87151 c 3.2567,-0.35281 6.09222,-1.1605 6.30114,-1.79487 C 350.28378,412.64204 339.21132,404 336.46601,404 c -2.84862,0 -14.80543,8.80841 -15.27639,11.2539 -0.29952,1.5553 0.57325,1.73424 7.98706,1.63757 4.57782,-0.0597 10.98789,-0.3972 14.24459,-0.75 z M 213.5,307.28432 c -5.5,-0.83145 -13.15,-2.75825 -17,-4.28178 l -7,-2.77006 -0.3038,-5.74694 c -0.34525,-6.53095 -1.3908,-6.31466 10.3038,-2.1315 17.21181,6.15668 43.78819,6.15668 61,0 11.6946,-4.18316 10.64905,-4.39945 10.3038,2.1315 l -0.3038,5.74694 -7,2.7604 c -7.4789,2.94925 -25.8356,6.07477 -34.68189,5.90514 C 225.89315,308.84194 219,308.11577 213.5,307.28432 Z m 4.70248,-47.28956 c -1.26364,-0.53101 -3.78111,-2.09706 -5.59439,-3.48012 -1.81328,-1.38305 -3.9294,-2.52275 -4.70248,-2.53267 -2.25374,-0.0289 -8.19149,-7.92801 -10.09231,-13.42598 C 194.75382,231.70667 195.87247,227 201.03518,227 c 2.4502,0 2.96482,0.41027 2.96482,2.36364 0,1.3 1.18636,3.55 2.63636,5 L 209.27273,237 h 21.28691 21.28691 l 3.07672,-2.58889 c 1.8691,-1.57275 3.07673,-3.53526 3.07673,-5 0,-1.73005 0.555,-2.41111 1.96482,-2.41111 2.24514,0 4.05039,2.78927 4.00253,6.18426 -0.0928,6.58032 -8.13384,20.74822 -11.80387,20.79771 -0.73509,0.01 -3.37129,1.48053 -5.85822,3.26803 -4.35357,3.12916 -4.91739,3.25856 -15.16348,3.48012 -5.85298,0.12656 -11.67566,-0.20435 -12.9393,-0.73536 z m 4.79105,-47.86913 C 215.72215,209.73981 210,204.78087 210,200.86514 210,199.10872 211.13665,199 229.5,199 c 10.88103,0 19.5,-0.39758 19.5,-0.89951 0,-0.49473 -1.56783,-3.2293 -3.48407,-6.07682 C 241.14812,185.53314 239,178.4179 239,170.44094 c 0,-7.64447 -1.09631,-8.73265 -8.90479,-8.83874 -7.83042,-0.10639 -8.73265,0.84674 -9.30946,9.8346 -0.89059,13.87724 -8.10688,24.33169 -21.46861,31.10219 L 191.5,206.5 H 174 c -16.68928,0 -17.72654,-0.11569 -22.39004,-2.49719 -12.45905,-6.36246 -19.05001,-16.3831 -20.58937,-31.30326 -0.49311,-4.77942 -1.15996,-9.11603 -1.48188,-9.63692 -0.32193,-0.52089 -2.57954,-1.24613 -5.01692,-1.61163 -6.53059,-0.97933 -7.76026,-2.28148 -8.29993,-8.78919 C 115.73,146.73062 117.58927,142 120.41227,142 c 0.75139,0 2.39218,-0.83082 3.6462,-1.84626 2.23678,-1.81124 2.28351,-2.26181 2.46318,-23.75 0.15896,-19.011551 0.52622,-23.664919 2.78144,-35.241875 1.42907,-7.335975 3.03113,-13.860975 3.56013,-14.5 0.529,-0.639026 2.84143,-4.879806 5.13873,-9.423956 9.94788,-19.677273 32.38529,-36.688033 54.35433,-41.208338 10.1694,-2.092435 27.78717,-4.546286 39.85165,-5.550646 4.93342,-0.410704 11.65478,-2.0080481 18.67271,-4.4376019 11.65799,-4.0359113 13.78326,-3.917713 12.03918,0.6695668 -1.51634,3.9882721 -0.0682,4.5661291 4.59469,1.8334765 C 269.9024,7.1449649 272.84476,6 274.05307,6 c 1.90131,0 2.11724,0.3984674 1.60468,2.9612265 -0.32573,1.6286745 -0.23355,3.1829075 0.20484,3.4538505 0.4384,0.270944 3.85153,-0.423732 7.58475,-1.543724 8.68726,-2.6062401 9.56511,-1.8942686 6.99332,5.671832 l -1.90326,5.599276 2.4813,1.977563 c 1.36472,1.087659 4.81338,3.747327 7.6637,5.910372 2.85031,2.163045 8.29202,6.999547 12.09267,10.747781 5.72947,5.650443 7.81456,8.686673 12.2022,17.768398 4.98015,10.308134 5.40588,11.807652 7.22643,25.453425 1.86732,13.996352 1.93731,20.62561 0.51585,48.86097 -0.21805,4.33118 -0.18199,4.38094 5.28045,7.28552 7.48134,3.9781 8.2382,5.17245 7.7552,12.23789 -0.47229,6.90873 -1.66492,8.14046 -8.83721,9.1269 -5.53891,0.76179 -5.58094,0.83722 -6.17098,11.07361 -0.41855,7.26125 -4.29912,15.88903 -9.85991,21.92176 -2.11229,2.29157 -7.17003,5.80286 -11.56996,8.03234 L 299.5,206.5 l -14.84931,0.34371 c -16.25671,0.37628 -21.49864,-0.46009 -27.79508,-4.43486 -2.20131,-1.38962 -4.39232,-2.3876 -4.86892,-2.21772 -0.47659,0.16988 -1.92348,1.88387 -3.21531,3.80887 -3.36405,5.01289 -9.64706,8.17006 -17.10672,8.59602 -3.39057,0.1936 -7.29257,-0.0181 -8.67113,-0.47039 z m -31.74751,-19.27002 c 13.76519,-4.71985 19.7551,-12.29834 19.75243,-24.99094 -0.002,-10.06566 -1.84606,-13.53802 -9.12207,-17.17802 -11.65006,-5.82823 -38.94862,-6.0049 -51.3393,-0.33226 -7.83197,3.5856 -9.52859,6.77236 -9.53334,17.90651 -0.006,13.76636 4.07818,20.45637 14.99626,24.56511 8.03637,3.02428 26.46707,3.03976 35.24602,0.0296 z m -31.57935,-21.52228 c -1.59009,-1.59008 -0.38349,-4.68523 3.44605,-8.83979 4.52597,-4.91009 8.50067,-6.48239 16.38728,-6.48239 7.88661,0 11.86131,1.5723 16.38728,6.48239 6.80745,7.38521 4.64053,12.22324 -3.07873,6.87379 C 188.9886,166.7201 187.96703,166.5 179.5,166.5 c -8.37606,0 -9.51497,0.23837 -13.13925,2.75 -4.05221,2.80819 -5.51422,3.26319 -6.69408,2.08333 z m 139.57935,21.52228 C 312.91702,188.16806 319,180.53951 319,168.08255 c 0,-8.68342 -1.80577,-13.38569 -6.15642,-16.03148 -3.2609,-1.98307 -3.28694,-1.98318 -5.37463,-0.0219 -3.01153,2.82918 -5.70929,2.44741 -10.40027,-1.47179 -5.21229,-4.35474 -10.31733,-5.18428 -23.25268,-3.7784 -11.9855,1.30264 -19.81762,4.53492 -22.78601,9.40368 -1.62264,2.66147 -2.02325,5.04945 -2.02625,12.07824 -0.006,13.76636 4.07818,20.45637 14.99626,24.56511 8.03637,3.02428 26.46707,3.03976 35.24602,0.0296 z m -38.57935,-21.52228 c -1.59009,-1.59008 -0.38349,-4.68523 3.44605,-8.83979 4.52597,-4.91009 8.50067,-6.48239 16.38728,-6.48239 7.88661,0 11.86131,1.5723 16.38728,6.48239 6.80745,7.38521 4.64053,12.22324 -3.07873,6.87379 C 289.9886,166.7201 288.96703,166.5 280.5,166.5 c -8.37606,0 -9.51497,0.23837 -13.13925,2.75 -4.05221,2.80819 -5.51422,3.26319 -6.69408,2.08333 z m -15.46693,-35.01009 13.30026,-4.67675 20.79442,-0.41123 c 18.58953,-0.36763 34.54112,0.61319 39.22895,2.41208 3.248,1.24638 1.00583,-17.93652 -3.9161,-33.50413 C 310.46753,87.04959 306.67018,82.123163 290.60171,69 c -3.03048,-2.475 -7.19139,-6.686511 -9.24646,-9.358913 l -3.73649,-4.858913 -5.05938,0.59339 c -14.51609,1.702523 -39.1511,2.642266 -65.11425,2.48389 -15.9976,-0.09759 -29.74651,0.23122 -30.5939,0.731655 -0.84647,0.49989 -3.70771,3.383891 -6.35831,6.408891 -2.65061,3.025 -6.95534,7.584389 -9.56608,10.131975 -10.43096,10.178631 -17.9266,26.805465 -21.83221,48.428225 -1.28031,7.08819 -1.39139,10.44709 -0.34463,10.42137 0.4125,-0.0101 4.4856,-0.67911 9.05133,-1.48663 6.53669,-1.1561 9.08758,-2.12507 12,-4.55825 2.03427,-1.69953 6.84867,-4.51804 10.69867,-6.26337 6.46055,-2.92877 7.80918,-3.17097 17.5,-3.14286 8.38185,0.0243 11.30691,0.42777 14.5,2 4.65256,2.29085 5.56382,5.19682 2.49931,7.97016 -1.86224,1.68531 -2.57337,1.76065 -6.55837,0.69483 -4.72541,-1.26386 -15.40968,-1.5785 -19.19094,-0.56516 -4.6193,1.23792 -2.00025,2.36995 5.5,2.37726 13.03924,0.0127 21.04656,1.76557 39.25,8.59212 5.33153,1.99939 6.87358,1.76107 21.19974,-3.27643 z"
       id="path1979"
       inkscape:connector-curvature="0" />
    <path
       style="fill:#5c8da9"
       d="m 210,459.01298 c -3.025,-0.46392 -10,-1.52304 -15.5,-2.35361 -5.5,-0.83056 -14.05,-2.71994 -19,-4.19861 -4.95,-1.47866 -9.9,-2.89986 -11,-3.15822 -10.49452,-2.46481 -37.84429,-16.24565 -53.75115,-27.08379 C 96.454633,412.47938 72.58014,390.09558 71.363689,385.29274 69.79635,379.10452 95.003894,349.85433 110.5,339.87997 c 15.2087,-9.78938 32.40912,-16.92148 45.79299,-18.98792 3.96385,-0.61202 8.47157,-1.76365 10.01715,-2.55918 3.64828,-1.87784 9.92904,-1.40057 10.24125,0.77822 0.12698,0.88609 -0.10207,3.43179 -0.509,5.6571 -0.99523,5.44251 0.64813,9.00714 7.15551,15.52101 C 193.476,350.57756 211.84772,357 231,357 c 21.75228,0 42.93431,-8.63971 51.50558,-21.00806 2.3411,-3.37821 2.51891,-4.27339 1.8113,-9.11894 -1.32635,-9.08252 -1.25103,-9.3357 2.87979,-9.67978 2.02568,-0.16873 4.94761,0.34411 6.49319,1.13965 1.54558,0.79553 6.0533,1.94716 10.01715,2.55918 13.0647,2.01716 30.9035,9.38545 45.50234,18.79465 15.77734,10.16877 41.00998,39.35592 39.42696,45.60604 -1.21645,4.80284 -25.09094,27.18664 -39.38516,36.92601 -27.79503,18.93816 -55.41187,29.95011 -88.75115,35.38868 -11.27968,1.84003 -42.07753,2.69722 -50.5,1.40555 z m 133.42127,-42.87151 c 3.2567,-0.35281 6.09222,-1.1605 6.30114,-1.79487 C 350.28378,412.64204 339.21132,404 336.46601,404 c -2.84862,0 -14.80543,8.80841 -15.27639,11.2539 -0.29952,1.5553 0.57325,1.73424 7.98706,1.63757 4.57782,-0.0597 10.98789,-0.3972 14.24459,-0.75 z M 213.5,307.28432 c -5.5,-0.83145 -13.15,-2.75825 -17,-4.28178 l -7,-2.77006 -0.3038,-5.74694 c -0.34525,-6.53095 -1.3908,-6.31466 10.3038,-2.1315 17.21181,6.15668 43.78819,6.15668 61,0 11.6946,-4.18316 10.64905,-4.39945 10.3038,2.1315 l -0.3038,5.74694 -7,2.7604 c -7.4789,2.94925 -25.8356,6.07477 -34.68189,5.90514 C 225.89315,308.84194 219,308.11577 213.5,307.28432 Z m -10.46934,-57.49635 c -3.51011,-4.22504 -6.93817,-12.35858 -6.99801,-16.60371 -0.0554,-3.927 1.77057,-6.18426 5.00253,-6.18426 2.4502,0 2.96482,0.41027 2.96482,2.36364 0,1.3 1.18636,3.55 2.63636,5 L 209.27273,237 h 21.28691 21.28691 l 3.07672,-2.58889 c 1.8691,-1.57275 3.07673,-3.53526 3.07673,-5 0,-1.73005 0.555,-2.41111 1.96482,-2.41111 6.55465,0 4.12148,14.84847 -3.93012,23.98362 -2.63367,2.9881 -3.31681,3.30609 -4.80256,2.23558 -7.26163,-5.23214 -7.58424,-5.34375 -13.73214,-4.75075 -7.58599,0.7317 -7.86656,0.73085 -14.58643,-0.0444 -5.81388,-0.67077 -10.07762,0.65888 -12.85885,4.01006 -1.97746,2.3827 -3.24197,1.90634 -7.02406,-2.64609 z m 19.96287,-37.66234 C 215.72215,209.73981 210,204.78087 210,200.86514 210,199.10872 211.13665,199 229.5,199 c 10.88103,0 19.5,-0.39758 19.5,-0.89951 0,-0.49473 -1.56783,-3.2293 -3.48407,-6.07682 C 241.14812,185.53314 239,178.4179 239,170.44094 c 0,-7.64447 -1.09631,-8.73265 -8.90479,-8.83874 -7.83042,-0.10639 -8.73265,0.84674 -9.30946,9.8346 -0.89059,13.87724 -8.10688,24.33169 -21.46861,31.10219 L 191.5,206.5 H 174 c -16.68928,0 -17.72654,-0.11569 -22.39004,-2.49719 -12.45905,-6.36246 -19.05001,-16.3831 -20.58937,-31.30326 -0.49311,-4.77942 -1.15996,-9.11603 -1.48188,-9.63692 -0.32193,-0.52089 -2.57954,-1.24613 -5.01692,-1.61163 -6.53059,-0.97933 -7.76026,-2.28148 -8.29993,-8.78919 C 115.73,146.73062 117.58927,142 120.41227,142 c 0.75139,0 2.39218,-0.83082 3.6462,-1.84626 2.23678,-1.81124 2.28351,-2.26181 2.46318,-23.75 0.15896,-19.011551 0.52622,-23.664919 2.78144,-35.241875 1.42907,-7.335975 3.03113,-13.860975 3.56013,-14.5 0.529,-0.639026 2.84143,-4.879806 5.13873,-9.423956 9.94788,-19.677273 32.38529,-36.688033 54.35433,-41.208338 10.1694,-2.092435 27.78717,-4.546286 39.85165,-5.550646 4.93342,-0.410704 11.65478,-2.0080481 18.67271,-4.4376019 11.65799,-4.0359113 13.78326,-3.917713 12.03918,0.6695668 -1.51634,3.9882721 -0.0682,4.5661291 4.59469,1.8334765 C 269.9024,7.1449649 272.84476,6 274.05307,6 c 1.90131,0 2.11724,0.3984674 1.60468,2.9612265 -0.32573,1.6286745 -0.23355,3.1829075 0.20484,3.4538505 0.4384,0.270944 3.85153,-0.423732 7.58475,-1.543724 8.68726,-2.6062401 9.56511,-1.8942686 6.99332,5.671832 l -1.90326,5.599276 2.4813,1.977563 c 1.36472,1.087659 4.81338,3.747327 7.6637,5.910372 2.85031,2.163045 8.29202,6.999547 12.09267,10.747781 5.72947,5.650443 7.81456,8.686673 12.2022,17.768398 4.98015,10.308134 5.40588,11.807652 7.22643,25.453425 1.86732,13.996352 1.93731,20.62561 0.51585,48.86097 -0.21805,4.33118 -0.18199,4.38094 5.28045,7.28552 7.48134,3.9781 8.2382,5.17245 7.7552,12.23789 -0.47229,6.90873 -1.66492,8.14046 -8.83721,9.1269 -5.53891,0.76179 -5.58094,0.83722 -6.17098,11.07361 -0.41855,7.26125 -4.29912,15.88903 -9.85991,21.92176 -2.11229,2.29157 -7.17003,5.80286 -11.56996,8.03234 L 299.5,206.5 l -14.84931,0.34371 c -16.25671,0.37628 -21.49864,-0.46009 -27.79508,-4.43486 -2.20131,-1.38962 -4.39232,-2.3876 -4.86892,-2.21772 -0.47659,0.16988 -1.92348,1.88387 -3.21531,3.80887 -3.36405,5.01289 -9.64706,8.17006 -17.10672,8.59602 -3.39057,0.1936 -7.29257,-0.0181 -8.67113,-0.47039 z m -31.74751,-19.27002 c 13.76519,-4.71985 19.7551,-12.29834 19.75243,-24.99094 -0.002,-10.06566 -1.84606,-13.53802 -9.12207,-17.17802 -11.65006,-5.82823 -38.94862,-6.0049 -51.3393,-0.33226 -7.83197,3.5856 -9.52859,6.77236 -9.53334,17.90651 -0.006,13.76636 4.07818,20.45637 14.99626,24.56511 8.03637,3.02428 26.46707,3.03976 35.24602,0.0296 z m -31.57935,-21.52228 c -1.59009,-1.59008 -0.38349,-4.68523 3.44605,-8.83979 4.52597,-4.91009 8.50067,-6.48239 16.38728,-6.48239 7.88661,0 11.86131,1.5723 16.38728,6.48239 6.80745,7.38521 4.64053,12.22324 -3.07873,6.87379 C 188.9886,166.7201 187.96703,166.5 179.5,166.5 c -8.37606,0 -9.51497,0.23837 -13.13925,2.75 -4.05221,2.80819 -5.51422,3.26319 -6.69408,2.08333 z m 139.57935,21.52228 C 312.91702,188.16806 319,180.53951 319,168.08255 c 0,-8.68342 -1.80577,-13.38569 -6.15642,-16.03148 -3.2609,-1.98307 -3.28694,-1.98318 -5.37463,-0.0219 -3.01153,2.82918 -5.70929,2.44741 -10.40027,-1.47179 -5.21229,-4.35474 -10.31733,-5.18428 -23.25268,-3.7784 -11.9855,1.30264 -19.81762,4.53492 -22.78601,9.40368 -1.62264,2.66147 -2.02325,5.04945 -2.02625,12.07824 -0.006,13.76636 4.07818,20.45637 14.99626,24.56511 8.03637,3.02428 26.46707,3.03976 35.24602,0.0296 z m -38.57935,-21.52228 c -1.59009,-1.59008 -0.38349,-4.68523 3.44605,-8.83979 4.52597,-4.91009 8.50067,-6.48239 16.38728,-6.48239 7.88661,0 11.86131,1.5723 16.38728,6.48239 6.80745,7.38521 4.64053,12.22324 -3.07873,6.87379 C 289.9886,166.7201 288.96703,166.5 280.5,166.5 c -8.37606,0 -9.51497,0.23837 -13.13925,2.75 -4.05221,2.80819 -5.51422,3.26319 -6.69408,2.08333 z m -15.46693,-35.01009 13.30026,-4.67675 20.79442,-0.41123 c 18.58953,-0.36763 34.54112,0.61319 39.22895,2.41208 3.248,1.24638 1.00583,-17.93652 -3.9161,-33.50413 C 310.46753,87.04959 306.67018,82.123163 290.60171,69 c -3.03048,-2.475 -7.19139,-6.686511 -9.24646,-9.358913 l -3.73649,-4.858913 -5.05938,0.59339 c -14.51609,1.702523 -39.1511,2.642266 -65.11425,2.48389 -15.9976,-0.09759 -29.74651,0.23122 -30.5939,0.731655 -0.84647,0.49989 -3.70771,3.383891 -6.35831,6.408891 -2.65061,3.025 -6.95534,7.584389 -9.56608,10.131975 -10.43096,10.178631 -17.9266,26.805465 -21.83221,48.428225 -1.28031,7.08819 -1.39139,10.44709 -0.34463,10.42137 0.4125,-0.0101 4.4856,-0.67911 9.05133,-1.48663 6.53669,-1.1561 9.08758,-2.12507 12,-4.55825 2.03427,-1.69953 6.84867,-4.51804 10.69867,-6.26337 6.46055,-2.92877 7.80918,-3.17097 17.5,-3.14286 8.38185,0.0243 11.30691,0.42777 14.5,2 4.65256,2.29085 5.56382,5.19682 2.49931,7.97016 -1.86224,1.68531 -2.57337,1.76065 -6.55837,0.69483 -4.72541,-1.26386 -15.40968,-1.5785 -19.19094,-0.56516 -4.6193,1.23792 -2.00025,2.36995 5.5,2.37726 13.03924,0.0127 21.04656,1.76557 39.25,8.59212 5.33153,1.99939 6.87358,1.76107 21.19974,-3.27643 z"
       id="path1977"
       inkscape:connector-curvature="0" />
    <path
       style="fill:#ab734d"
       d="m 214.5,459.40925 c -1.65,-0.23657 -8.175,-1.13183 -14.5,-1.98947 -18.65359,-2.52934 -43.28675,-10.07193 -59.06499,-18.0855 C 137.32426,437.50043 134.02552,436 133.60447,436 c -0.42104,0 -3.13837,-1.575 -6.03851,-3.5 -2.90013,-1.925 -5.67639,-3.52079 -6.16947,-3.54621 -0.49307,-0.0254 -4.27149,-2.49475 -8.39649,-5.48742 -4.125,-2.99266 -9.15423,-6.55651 -11.17607,-7.91966 C 97.346062,412.52767 73.280386,389.39242 71.86313,386.74426 70.04198,383.34141 78.88922,370.271 92,356.9952 c 11.02706,-11.16586 16.33378,-15.25946 29.5,-22.75628 7.84268,-4.46561 25.96608,-11.10302 33.73134,-12.35358 3.37586,-0.54367 8.74065,-1.86528 11.92175,-2.93691 3.1811,-1.07164 6.23218,-1.94843 6.78018,-1.94843 1.90399,0 2.88356,3.53308 2.12687,7.67111 -1.01488,5.54994 0.59188,9.06567 7.13776,15.61809 C 193.476,350.57756 211.84772,357 231,357 c 21.80468,0 42.93275,-8.63746 51.55215,-21.07525 2.60776,-3.763 2.80941,-7.00223 0.87011,-13.97721 -0.2374,-0.85385 0.18291,-2.3929 0.93402,-3.4201 1.32915,-1.81772 1.54982,-1.81039 8.25469,0.27422 3.78897,1.17802 9.5059,2.59472 12.7043,3.14821 6.94482,1.20183 25.18609,7.7934 32.18473,11.63011 20.39486,11.18061 41.15592,31.31746 50.07951,48.57378 1.03733,2.00598 1.19046,3.40754 0.51099,4.67714 -1.38266,2.58352 -25.51756,25.75138 -29.91443,28.71581 -2.02184,1.36315 -7.05107,4.927 -11.17607,7.91966 -4.125,2.99267 -7.90342,5.46201 -8.39649,5.48742 -0.49308,0.0254 -3.26934,1.62121 -6.16947,3.54621 -2.90014,1.925 -5.61747,3.5 -6.03851,3.5 -0.42105,0 -3.71979,1.50043 -7.33054,3.33428 -15.2434,7.74193 -37.32477,14.70592 -56.28866,17.75222 -11.62734,1.86778 -41.44379,3.30236 -48.27633,2.32275 z m 134.1557,-43.83063 c 2.2129,-0.84916 1.52683,-3.41767 -1.4057,-5.2627 -1.5125,-0.9516 -4.02203,-2.76197 -5.57673,-4.02305 -3.974,-3.22347 -6.47802,-2.88558 -13.48533,1.81972 -5.67184,3.80854 -8.00559,6.75542 -6.84151,8.63893 0.49083,0.79419 24.91696,-0.25488 27.30927,-1.1729 z M 213.5,307.28432 c -5.5,-0.83145 -13.15,-2.75825 -17,-4.28178 l -7,-2.77006 -0.3038,-5.74694 c -0.34525,-6.53095 -1.3908,-6.31466 10.3038,-2.1315 17.21181,6.15668 43.78819,6.15668 61,0 11.6946,-4.18316 10.64905,-4.39945 10.3038,2.1315 l -0.3038,5.74694 -7,2.7604 c -7.4789,2.94925 -25.8356,6.07477 -34.68189,5.90514 C 225.89315,308.84194 219,308.11577 213.5,307.28432 Z m -10.46934,-57.49635 c -3.51011,-4.22504 -6.93817,-12.35858 -6.99801,-16.60371 -0.0554,-3.927 1.77057,-6.18426 5.00253,-6.18426 2.4502,0 2.96482,0.41027 2.96482,2.36364 0,1.3 1.18636,3.55 2.63636,5 L 209.27273,237 h 21.28691 21.28691 l 3.07672,-2.58889 c 1.8691,-1.57275 3.07673,-3.53526 3.07673,-5 0,-1.73005 0.555,-2.41111 1.96482,-2.41111 6.55465,0 4.12148,14.84847 -3.93012,23.98362 -2.63367,2.9881 -3.31681,3.30609 -4.80256,2.23558 -7.26163,-5.23214 -7.58424,-5.34375 -13.73214,-4.75075 -7.58599,0.7317 -7.86656,0.73085 -14.58643,-0.0444 -5.81388,-0.67077 -10.07762,0.65888 -12.85885,4.01006 -1.97746,2.3827 -3.24197,1.90634 -7.02406,-2.64609 z m 19.96287,-37.66234 C 215.72215,209.73981 210,204.78087 210,200.86514 210,199.10872 211.13665,199 229.5,199 c 10.88103,0 19.5,-0.39758 19.5,-0.89951 0,-0.49473 -1.56783,-3.2293 -3.48407,-6.07682 C 241.14812,185.53314 239,178.4179 239,170.44094 c 0,-7.64447 -1.09631,-8.73265 -8.90479,-8.83874 -7.83042,-0.10639 -8.73265,0.84674 -9.30946,9.8346 -0.89059,13.87724 -8.10688,24.33169 -21.46861,31.10219 L 191.5,206.5 H 174 c -16.68928,0 -17.72654,-0.11569 -22.39004,-2.49719 -12.45905,-6.36246 -19.05001,-16.3831 -20.58937,-31.30326 -0.49311,-4.77942 -1.15182,-9.10287 -1.46382,-9.60769 -0.31199,-0.50481 -2.47739,-1.23425 -4.81201,-1.62098 C 117.46875,160.26562 117,159.72053 117,152.46482 c 0,-6.95225 0.35456,-7.55976 6.87524,-11.78022 l 3.37525,-2.1846 0.20558,-22.5 c 0.27368,-29.953042 2.29846,-41.981715 9.5396,-56.672165 10.64787,-21.60187 32.32963,-38.559455 55.36061,-43.298264 10.1694,-2.092435 27.78717,-4.546286 39.85165,-5.550646 4.93342,-0.410704 11.65478,-2.0080481 18.67271,-4.4376019 11.65799,-4.0359113 13.78326,-3.917713 12.03918,0.6695668 -1.51634,3.9882721 -0.0682,4.5661291 4.59469,1.8334765 C 269.9024,7.1449649 272.84476,6 274.05307,6 c 1.90131,0 2.11724,0.3984674 1.60468,2.9612265 -0.32573,1.6286745 -0.23355,3.1829075 0.20484,3.4538505 0.4384,0.270944 3.85153,-0.423732 7.58475,-1.543724 8.68726,-2.6062401 9.56511,-1.8942686 6.99332,5.671832 l -1.90326,5.599276 2.4813,1.977563 c 1.36472,1.087659 4.81338,3.747327 7.6637,5.910372 2.85031,2.163045 8.29827,7.005712 12.10657,10.761481 15.31179,15.100606 21.33682,37.708443 19.82773,74.400033 -0.34629,8.41945 -0.7392,16.84927 -0.87315,18.73292 -0.22947,3.22687 0.0945,3.60845 5.60556,6.60135 3.21701,1.74708 6.24762,3.8059 6.73469,4.57516 0.48706,0.76926 0.89247,4.19533 0.90089,7.61348 0.0174,7.08098 -0.50749,7.64137 -8.24451,8.8015 -5.34243,0.80107 -5.40836,0.92283 -5.99317,11.06857 -0.41855,7.26125 -4.29912,15.88903 -9.85991,21.92176 -2.11229,2.29157 -7.17003,5.80286 -11.56996,8.03234 L 299.5,206.5 l -14.84931,0.34371 c -16.25671,0.37628 -21.49864,-0.46009 -27.79508,-4.43486 -2.20131,-1.38962 -4.39232,-2.3876 -4.86892,-2.21772 -0.47659,0.16988 -1.92348,1.88387 -3.21531,3.80887 -3.36405,5.01289 -9.64706,8.17006 -17.10672,8.59602 -3.39057,0.1936 -7.29257,-0.0181 -8.67113,-0.47039 z m -31.74751,-19.27002 c 13.76519,-4.71985 19.7551,-12.29834 19.75243,-24.99094 -0.002,-10.06566 -1.84606,-13.53802 -9.12207,-17.17802 -11.65006,-5.82823 -38.94862,-6.0049 -51.3393,-0.33226 -7.83197,3.5856 -9.52859,6.77236 -9.53334,17.90651 -0.006,13.76636 4.07818,20.45637 14.99626,24.56511 8.03637,3.02428 26.46707,3.03976 35.24602,0.0296 z m -31.57935,-21.52228 c -1.59009,-1.59008 -0.38349,-4.68523 3.44605,-8.83979 4.52597,-4.91009 8.50067,-6.48239 16.38728,-6.48239 7.88661,0 11.86131,1.5723 16.38728,6.48239 6.80745,7.38521 4.64053,12.22324 -3.07873,6.87379 C 188.9886,166.7201 187.96703,166.5 179.5,166.5 c -8.37606,0 -9.51497,0.23837 -13.13925,2.75 -4.05221,2.80819 -5.51422,3.26319 -6.69408,2.08333 z m 139.57935,21.52228 C 312.91702,188.16806 319,180.53951 319,168.08255 c 0,-8.68342 -1.80577,-13.38569 -6.15642,-16.03148 -3.2609,-1.98307 -3.28694,-1.98318 -5.37463,-0.0219 -3.01153,2.82918 -5.70929,2.44741 -10.40027,-1.47179 -5.21229,-4.35474 -10.31733,-5.18428 -23.25268,-3.7784 -11.9855,1.30264 -19.81762,4.53492 -22.78601,9.40368 -1.62264,2.66147 -2.02325,5.04945 -2.02625,12.07824 -0.006,13.76636 4.07818,20.45637 14.99626,24.56511 8.03637,3.02428 26.46707,3.03976 35.24602,0.0296 z m -38.57935,-21.52228 c -1.59009,-1.59008 -0.38349,-4.68523 3.44605,-8.83979 4.52597,-4.91009 8.50067,-6.48239 16.38728,-6.48239 7.88661,0 11.86131,1.5723 16.38728,6.48239 6.80745,7.38521 4.64053,12.22324 -3.07873,6.87379 C 289.9886,166.7201 288.96703,166.5 280.5,166.5 c -8.37606,0 -9.51497,0.23837 -13.13925,2.75 -4.05221,2.80819 -5.51422,3.26319 -6.69408,2.08333 z m -15.46693,-35.01009 13.30026,-4.67675 20.79442,-0.41123 c 18.58953,-0.36763 34.54112,0.61319 39.22895,2.41208 3.248,1.24638 1.00583,-17.93652 -3.9161,-33.50413 C 310.46753,87.04959 306.67018,82.123163 290.60171,69 c -3.03048,-2.475 -7.19139,-6.686511 -9.24646,-9.358913 l -3.73649,-4.858913 -5.05938,0.59339 c -14.51609,1.702523 -39.1511,2.642266 -65.11425,2.48389 -15.9976,-0.09759 -29.74651,0.23122 -30.5939,0.731655 -0.84647,0.49989 -3.70771,3.383891 -6.35831,6.408891 -2.65061,3.025 -6.95534,7.584389 -9.56608,10.131975 -10.43096,10.178631 -17.9266,26.805465 -21.83221,48.428225 -1.28031,7.08819 -1.39139,10.44709 -0.34463,10.42137 0.4125,-0.0101 4.4856,-0.67911 9.05133,-1.48663 6.53669,-1.1561 9.08758,-2.12507 12,-4.55825 2.03427,-1.69953 6.84867,-4.51804 10.69867,-6.26337 6.46055,-2.92877 7.80918,-3.17097 17.5,-3.14286 8.38185,0.0243 11.30691,0.42777 14.5,2 4.65256,2.29085 5.56382,5.19682 2.49931,7.97016 -1.86224,1.68531 -2.57337,1.76065 -6.55837,0.69483 -4.72541,-1.26386 -15.40968,-1.5785 -19.19094,-0.56516 -4.6193,1.23792 -2.00025,2.36995 5.5,2.37726 13.03924,0.0127 21.04656,1.76557 39.25,8.59212 5.33153,1.99939 6.87358,1.76107 21.19974,-3.27643 z"
       id="path1975"
       inkscape:connector-curvature="0" />
    <path
       style="fill:#54768b"
       d="m 214.5,459.40925 c -1.65,-0.23657 -8.175,-1.13183 -14.5,-1.98947 -18.65359,-2.52934 -43.28675,-10.07193 -59.06499,-18.0855 C 137.32426,437.50043 134.02552,436 133.60447,436 c -0.42104,0 -3.13837,-1.575 -6.03851,-3.5 -2.90013,-1.925 -5.67639,-3.52079 -6.16947,-3.54621 -0.49307,-0.0254 -4.27149,-2.49475 -8.39649,-5.48742 -4.125,-2.99266 -9.15423,-6.55651 -11.17607,-7.91966 C 97.346062,412.52767 73.280386,389.39242 71.86313,386.74426 70.04198,383.34141 78.88922,370.271 92,356.9952 c 11.02706,-11.16586 16.33378,-15.25946 29.5,-22.75628 7.68183,-4.37402 25.8914,-11.08666 33.28179,-12.26874 3.14502,-0.50305 8.78111,-1.89173 12.52466,-3.08596 4.29431,-1.36993 7.15675,-1.82102 7.75555,-1.22222 0.59881,0.59881 0.53,3.03602 -0.18644,6.60343 -1.10354,5.49493 -1.04879,5.78935 1.9421,10.44444 6.54988,10.19439 19.58813,18.18438 34.77177,21.30853 19.22308,3.9553 39.93066,1.84081 54.73692,-5.58929 8.47399,-4.25243 18.27281,-12.98385 19.33916,-17.23252 0.34624,-1.37956 0.12207,-5.23707 -0.49818,-8.57225 -0.68974,-3.7089 -0.76896,-6.42271 -0.20397,-6.9877 0.56499,-0.56499 3.56716,-0.10222 7.73019,1.19157 3.74355,1.16342 9.42332,2.56817 12.62172,3.12166 6.94482,1.20183 25.18609,7.7934 32.18473,11.63011 20.39486,11.18061 41.15592,31.31746 50.07951,48.57378 1.03733,2.00598 1.19046,3.40754 0.51099,4.67714 -1.38266,2.58352 -25.51756,25.75138 -29.91443,28.71581 -2.02184,1.36315 -7.05107,4.927 -11.17607,7.91966 -4.125,2.99267 -7.90342,5.46201 -8.39649,5.48742 -0.49308,0.0254 -3.26934,1.62121 -6.16947,3.54621 -2.90014,1.925 -5.61747,3.5 -6.03851,3.5 -0.42105,0 -3.71979,1.50043 -7.33054,3.33428 -15.2434,7.74193 -37.32477,14.70592 -56.28866,17.75222 -11.62734,1.86778 -41.44379,3.30236 -48.27633,2.32275 z m 134.1557,-43.83063 c 2.2129,-0.84916 1.52683,-3.41767 -1.4057,-5.2627 -1.5125,-0.9516 -4.02203,-2.76197 -5.57673,-4.02305 -3.974,-3.22347 -6.47802,-2.88558 -13.48533,1.81972 -5.67184,3.80854 -8.00559,6.75542 -6.84151,8.63893 0.49083,0.79419 24.91696,-0.25488 27.30927,-1.1729 z M 203.89827,248.6778 c -3.38022,-4.12866 -4.36209,-6.16103 -5.77524,-11.95421 C 196.78655,231.24471 197.86472,228 201.02176,228 c 1.2762,0 2.44576,1.18317 3.38016,3.41951 0.78582,1.88073 2.33728,3.90573 3.44768,4.5 1.26562,0.67734 9.99574,1.08049 23.39757,1.08049 h 21.37865 l 2.5405,-2.75 c 1.39727,-1.5125 2.81734,-3.5375 3.1557,-4.5 0.81301,-2.31265 2.35691,-2.21844 3.66384,0.22359 1.94598,3.63608 -1.40772,13.71447 -6.41445,19.27641 -3.00026,3.33298 -3.86849,3.38782 -7.91704,0.5 -2.38341,-1.70008 -4.37643,-2.20713 -8.15437,-2.07459 -2.75,0.0965 -7.025,0.17542 -9.5,0.17542 -2.475,0 -6.75,-0.0789 -9.5,-0.17542 -3.77794,-0.13254 -5.77096,0.37451 -8.15437,2.07459 -4.09416,2.92035 -5.30435,2.76674 -8.44736,-1.0722 z M 163,204.30962 c -6.87338,-1.14928 -15.59079,-4.84857 -19.28007,-8.18161 -7.62506,-6.88878 -10.58115,-13.47577 -11.68238,-26.03156 C 131.22056,160.78149 130.01547,159 124.53138,159 119.22713,159 117,156.61753 117,150.9433 c 0,-5.26647 0.64185,-6.22418 6.87524,-10.2587 l 3.37525,-2.1846 0.20558,-22.5 c 0.27368,-29.953042 2.29846,-41.981715 9.5396,-56.672165 10.64787,-21.60187 32.32963,-38.559455 55.36061,-43.298264 10.1694,-2.092435 27.78717,-4.546286 39.85165,-5.550646 4.93342,-0.410704 11.65478,-2.0080481 18.67271,-4.4376019 11.65799,-4.0359113 13.78326,-3.917713 12.03918,0.6695668 -1.51634,3.9882721 -0.0682,4.5661291 4.59469,1.8334765 C 269.9024,7.1449649 272.84476,6 274.05307,6 c 1.90131,0 2.11724,0.3984674 1.60468,2.9612265 -0.32573,1.6286745 -0.23355,3.1829075 0.20484,3.4538505 0.4384,0.270944 3.85153,-0.423732 7.58475,-1.543724 8.68726,-2.6062401 9.56511,-1.8942686 6.99332,5.671832 l -1.90326,5.599276 2.4813,1.977563 c 1.36472,1.087659 4.81338,3.747327 7.6637,5.910372 2.85031,2.163045 8.29827,7.005712 12.10657,10.761481 15.31179,15.100606 21.33682,37.708443 19.82773,74.400033 -0.34629,8.41945 -0.7392,16.84927 -0.87315,18.73292 -0.22947,3.22687 0.0945,3.60845 5.60556,6.60135 7.03123,3.81849 7.6159,4.63529 7.63558,10.66712 0.018,5.52832 -2.29027,7.79741 -7.9572,7.82201 -5.71596,0.0248 -6.39792,1.00205 -7.11251,10.19202 -1.83349,23.57979 -21.64214,37.40996 -50.85485,35.50628 C 252.96002,203.1431 240,190.04728 240,167.26515 c 0,-5.85823 -0.1854,-6.38514 -2.5651,-7.2899 -3.64611,-1.38625 -13.75832,-1.20849 -15.62999,0.27475 -1.11156,0.88088 -1.72696,3.63194 -2.08397,9.31624 -1.12792,17.95822 -12.366,29.70789 -32.49425,33.9735 -6.28835,1.33264 -18.53379,1.72177 -24.22669,0.76988 z m 29,-10.34459 c 10.67549,-3.66176 18.5996,-11.69303 20.49367,-20.77083 1.23735,-5.93032 -0.41645,-14.73473 -3.69848,-19.68968 -3.67814,-5.553 -4.49529,-6.01038 -14.41163,-8.06677 -5.95509,-1.23493 -11.30822,-1.52006 -21.88356,-1.1656 -17.49765,0.58648 -23.83152,2.20856 -28.16727,7.21353 -9.64852,11.13775 -5.21601,35.54629 7.47694,41.17335 10.94213,4.85088 28.21883,5.41229 40.19033,1.306 z m -31,-25.84867 c 0,-3.15394 7.13071,-8.70834 12.98169,-10.11197 8.13993,-1.95274 15.23585,-0.0361 20.9341,5.6543 3.42076,3.41606 4.14689,4.67863 3.22248,5.60304 -0.92442,0.92442 -1.58145,0.91218 -2.91579,-0.0543 C 190.93767,166.10384 186.72912,165 179.18106,165 c -6.48823,0 -8.71519,0.44238 -12.58504,2.5 C 160.96399,170.49458 161,170.49062 161,168.11636 Z m 139,25.84867 c 7.87776,-2.70212 14.05185,-7.4959 17.74438,-13.77738 2.41563,-4.10928 2.74563,-5.6747 2.67467,-12.68765 -0.0881,-8.71009 -1.27267,-11.99079 -6.25528,-17.32468 C 310.86786,146.64703 307,145.90447 307,148.8 c 0,2.10447 -1.84463,4.2 -3.69712,4.2 -0.71341,0 -2.98591,-1.52388 -5.05,-3.3864 -4.56263,-4.11708 -9.52528,-5.60093 -18.75288,-5.6072 -7.06165,-0.005 -20.26153,2.26042 -23.60789,4.05134 -3.07458,1.64547 -6.68367,7.21131 -7.95451,12.26726 -2.49121,9.91105 0.95573,23.5769 7.44348,29.51063 2.05238,1.87713 11.52271,5.61571 16.61892,6.56061 5.98912,1.11047 21.63527,-0.24807 28,-2.43121 z m -38,-25.84867 c 0,-3.15394 7.13071,-8.70834 12.98169,-10.11197 8.13993,-1.95274 15.23585,-0.0361 20.9341,5.6543 5.67625,5.66846 4.49726,7.56807 -2.41579,3.89237 C 289.48006,165.41363 287.37221,165 280.5,165 c -6.82844,0 -8.98958,0.4187 -12.90398,2.5 C 261.96399,170.49458 262,170.49062 262,168.11636 Z m -15.22742,-30.79614 13.72742,-4.67978 17.74643,-0.43165 c 11.04084,-0.26856 21.43187,0.0441 27.5,0.8274 5.36446,0.69249 11.07345,1.30513 12.68664,1.36144 l 2.93306,0.10237 -0.23584,-6 c -0.61286,-15.59124 -5.77556,-34.072946 -12.11044,-43.353532 -4.15023,-6.080097 -5.9221,-7.811744 -16.7817,-16.400737 -3.30611,-2.614847 -7.5247,-6.746951 -9.37463,-9.182453 -4.11053,-5.411646 -6.19691,-6.408277 -11.36352,-5.42818 -8.65941,1.642675 -42.34053,2.97101 -67.84514,2.675717 L 176.80973,56.5 l -11.37484,12 c -11.49541,12.127212 -17.59773,20.689023 -19.95661,28 -0.70983,2.2 -2.24771,6.61861 -3.41752,9.81913 -2.49238,6.81902 -6.33895,27.80917 -5.28544,28.84187 0.39857,0.3907 3.64968,0.0801 7.22468,-0.69019 3.575,-0.7703 7.72184,-1.41636 9.2152,-1.43568 1.55148,-0.0201 4.17685,-1.31847 6.1255,-3.02941 4.64266,-4.0763 15.20071,-8.87318 21.9467,-9.97112 5.99403,-0.97555 16.72982,0.10486 21.17716,2.1312 1.80929,0.82437 2.53494,1.84086 2.33122,3.26558 -0.2493,1.74359 -0.92428,2.03288 -4.29578,1.84116 -14.77837,-0.84037 -21.19332,-0.58725 -24.75,0.97658 -5.98213,2.63027 -4.62987,3.75088 4.52623,3.75088 15.86053,0 28.20715,2.48324 41.72377,8.39176 5.62992,2.46101 10.20917,1.89323 24.77258,-3.07154 z"
       id="path1973"
       inkscape:connector-curvature="0" />
    <path
       style="fill:#5c5d5e"
       d="m 213.5,458.97487 c -16.67548,-2.0015 -28.06471,-4.20449 -38.37895,-7.42353 C 168.86262,449.5981 163.31305,448 162.78866,448 160.20454,448 136.73471,437.10339 126.5,431.15184 109.98242,421.54676 99.042312,413.16371 84.146798,398.69796 70.657111,385.59748 70.942774,386.26172 75.558787,378.72868 c 2.099209,-3.42577 5.194749,-7.99092 6.878978,-10.14477 3.262599,-4.17232 16.2939,-17.25331 21.767845,-21.85085 6.70902,-5.63486 23.59194,-15.72108 28.79439,-17.20238 1.375,-0.39151 5.2,-1.76449 8.5,-3.05108 3.3,-1.28658 9.6,-3.00787 14,-3.82509 4.4,-0.81722 9.96166,-2.21352 12.35924,-3.1029 4.96757,-1.8427 8.47942,-1.26205 7.73587,1.27904 -2.01578,6.88891 -1.8134,9.15407 1.24285,13.91085 6.52929,10.16226 19.58633,18.15655 34.75147,21.2769 29.05607,5.97852 57.89929,-1.63856 71.7666,-18.95252 2.59804,-3.24378 2.80424,-4.07015 2.28282,-9.14856 -0.31527,-3.07048 -0.84552,-6.29233 -1.17835,-7.15966 -0.94241,-2.45587 2.7485,-3.03546 7.68026,-1.20605 2.39758,0.88938 7.95924,2.28568 12.35924,3.1029 4.4,0.81722 10.7,2.53851 14,3.82509 3.3,1.28659 7.125,2.66758 8.5,3.06888 2.85768,0.83402 16.77927,8.42525 22,11.99627 5.00645,3.42446 9.13934,6.98657 17.3516,14.95525 8.63897,8.38273 16.34403,18.14315 20.183,25.56691 2.05399,3.97198 1.55707,4.74569 -10.6814,16.63105 -14.89551,14.46575 -25.83562,22.8488 -42.3532,32.45388 C 323.26529,437.10339 299.79546,448 297.21134,448 c -0.52439,0 -6.07396,1.59897 -12.33239,3.55328 -21.33066,6.66087 -51.54411,9.80229 -71.37895,7.42159 z m 135.25,-42.64528 c 3.74536,-0.90955 2.56617,-3.80521 -3.35189,-8.231 -8.02117,-5.9986 -9.6971,-6.09412 -16.89811,-0.96317 -6.86185,4.88929 -8.42347,6.59612 -8.4682,9.25558 -0.0302,1.79584 0.63493,1.85562 13.2182,1.188 7.2875,-0.38665 14.2625,-0.94889 15.5,-1.24941 z M 203.89827,248.6778 c -3.38022,-4.12866 -4.36209,-6.16103 -5.77524,-11.95421 C 196.78655,231.24471 197.86472,228 201.02176,228 c 1.2762,0 2.44576,1.18317 3.38016,3.41951 0.78582,1.88073 2.33728,3.90573 3.44768,4.5 1.26562,0.67734 9.99574,1.08049 23.39757,1.08049 h 21.37865 l 2.5405,-2.75 c 1.39727,-1.5125 2.81734,-3.5375 3.1557,-4.5 0.81301,-2.31265 2.35691,-2.21844 3.66384,0.22359 1.94598,3.63608 -1.40772,13.71447 -6.41445,19.27641 -3.00026,3.33298 -3.86849,3.38782 -7.91704,0.5 -2.38341,-1.70008 -4.37643,-2.20713 -8.15437,-2.07459 -2.75,0.0965 -7.025,0.17542 -9.5,0.17542 -2.475,0 -6.75,-0.0789 -9.5,-0.17542 -3.77794,-0.13254 -5.77096,0.37451 -8.15437,2.07459 -4.09416,2.92035 -5.30435,2.76674 -8.44736,-1.0722 z M 163,204.30962 c -6.87338,-1.14928 -15.59079,-4.84857 -19.28007,-8.18161 -7.62506,-6.88878 -10.58115,-13.47577 -11.68238,-26.03156 C 131.21955,160.76992 130.01728,159 124.5,159 c -4.23052,0 -6.14915,-1.77619 -6.8271,-6.32027 -0.67681,-4.5364 0.61361,-8.48428 3.06209,-9.36808 0.97076,-0.35041 3.04978,-1.52817 4.62005,-2.61726 l 2.85504,-1.98017 -0.676,-13.60711 c -1.16224,-23.39481 2.61735,-50.034175 9.15806,-64.547967 7.6954,-17.076042 20.91906,-30.035324 39.87789,-39.080631 8.68803,-4.145086 23.41824,-7.382939 42.92997,-9.436458 18.90622,-1.989792 23.76526,-2.9094238 31.81369,-6.0211159 C 255.61122,4.3594221 260.03828,3 261.15159,3 c 1.80754,0 1.95187,0.4281508 1.34841,4 -0.37169,2.2 -0.40296,4 -0.0695,4 0.33346,0 2.8491,-1.1727289 5.59031,-2.6060642 6.0704,-3.1741254 8.4184,-2.6701905 7.47936,1.6052388 C 275.13768,11.649629 275.16583,13 275.56273,13 c 0.39691,0 3.86232,-0.935335 7.70093,-2.078523 8.2839,-2.4670496 9.93205,-1.7640145 7.83596,3.342489 -2.93391,7.147568 -2.71772,7.950687 3.43774,12.771196 3.13572,2.455661 7.7851,6.364595 10.33197,8.68652 2.54687,2.321925 4.94187,4.234425 5.32222,4.25 1.86204,0.07625 10.09754,12.703269 13.24621,20.309659 5.93337,14.333482 7.99572,37.759306 6.34334,72.052439 l -0.2811,5.83377 5.5,2.87708 c 6.51354,3.40726 8.15774,5.96955 7.35081,11.45537 -0.71071,4.83163 -2.57236,6.49501 -7.29194,6.51531 -5.75007,0.0247 -6.42858,0.99276 -7.14389,10.19202 -1.83349,23.57979 -21.64214,37.40996 -50.85485,35.50628 C 252.96002,203.1431 240,190.04728 240,167.26515 c 0,-5.85823 -0.1854,-6.38514 -2.5651,-7.2899 -3.64611,-1.38625 -13.75832,-1.20849 -15.62999,0.27475 -1.11156,0.88088 -1.72696,3.63194 -2.08397,9.31624 -1.12792,17.95822 -12.366,29.70789 -32.49425,33.9735 -6.28835,1.33264 -18.53379,1.72177 -24.22669,0.76988 z m 29,-10.34459 c 10.67549,-3.66176 18.5996,-11.69303 20.49367,-20.77083 1.23735,-5.93032 -0.41645,-14.73473 -3.69848,-19.68968 -3.67814,-5.553 -4.49529,-6.01038 -14.41163,-8.06677 -5.95509,-1.23493 -11.30822,-1.52006 -21.88356,-1.1656 -17.49765,0.58648 -23.83152,2.20856 -28.16727,7.21353 -9.64852,11.13775 -5.21601,35.54629 7.47694,41.17335 10.94213,4.85088 28.21883,5.41229 40.19033,1.306 z m -31,-25.84867 c 0,-3.15394 7.13071,-8.70834 12.98169,-10.11197 8.13993,-1.95274 15.23585,-0.0361 20.9341,5.6543 3.42076,3.41606 4.14689,4.67863 3.22248,5.60304 -0.92442,0.92442 -1.58145,0.91218 -2.91579,-0.0543 C 190.93767,166.10384 186.72912,165 179.18106,165 c -6.48823,0 -8.71519,0.44238 -12.58504,2.5 C 160.96399,170.49458 161,170.49062 161,168.11636 Z m 139,25.84867 c 7.87776,-2.70212 14.05185,-7.4959 17.74438,-13.77738 2.41563,-4.10928 2.74563,-5.6747 2.67467,-12.68765 -0.0881,-8.71009 -1.27267,-11.99079 -6.25528,-17.32468 C 310.86786,146.64703 307,145.90447 307,148.8 c 0,2.10447 -1.84463,4.2 -3.69712,4.2 -0.71341,0 -2.98591,-1.52388 -5.05,-3.3864 -4.56263,-4.11708 -9.52528,-5.60093 -18.75288,-5.6072 -7.06165,-0.005 -20.26153,2.26042 -23.60789,4.05134 -3.07458,1.64547 -6.68367,7.21131 -7.95451,12.26726 -2.49121,9.91105 0.95573,23.5769 7.44348,29.51063 2.05238,1.87713 11.52271,5.61571 16.61892,6.56061 5.98912,1.11047 21.63527,-0.24807 28,-2.43121 z m -38,-25.84867 c 0,-3.15394 7.13071,-8.70834 12.98169,-10.11197 8.13993,-1.95274 15.23585,-0.0361 20.9341,5.6543 5.67625,5.66846 4.49726,7.56807 -2.41579,3.89237 C 289.48006,165.41363 287.37221,165 280.5,165 c -6.82844,0 -8.98958,0.4187 -12.90398,2.5 C 261.96399,170.49458 262,170.49062 262,168.11636 Z m -15.22742,-30.79614 13.72742,-4.67978 17.74643,-0.43165 c 11.04084,-0.26856 21.43187,0.0441 27.5,0.8274 5.36446,0.69249 11.07345,1.30513 12.68664,1.36144 l 2.93306,0.10237 -0.23584,-6 c -0.61286,-15.59124 -5.77556,-34.072946 -12.11044,-43.353532 -4.15023,-6.080097 -5.9221,-7.811744 -16.7817,-16.400737 -3.30611,-2.614847 -7.5247,-6.746951 -9.37463,-9.182453 -4.11053,-5.411646 -6.19691,-6.408277 -11.36352,-5.42818 -8.65941,1.642675 -42.34053,2.97101 -67.84514,2.675717 L 176.80973,56.5 l -11.37484,12 c -11.49541,12.127212 -17.59773,20.689023 -19.95661,28 -0.70983,2.2 -2.24771,6.61861 -3.41752,9.81913 -2.49238,6.81902 -6.33895,27.80917 -5.28544,28.84187 0.39857,0.3907 3.64968,0.0801 7.22468,-0.69019 3.575,-0.7703 7.72184,-1.41636 9.2152,-1.43568 1.55148,-0.0201 4.17685,-1.31847 6.1255,-3.02941 4.64266,-4.0763 15.20071,-8.87318 21.9467,-9.97112 5.99403,-0.97555 16.72982,0.10486 21.17716,2.1312 1.80929,0.82437 2.53494,1.84086 2.33122,3.26558 -0.2493,1.74359 -0.92428,2.03288 -4.29578,1.84116 -14.77837,-0.84037 -21.19332,-0.58725 -24.75,0.97658 -5.98213,2.63027 -4.62987,3.75088 4.52623,3.75088 15.86053,0 28.20715,2.48324 41.72377,8.39176 5.62992,2.46101 10.20917,1.89323 24.77258,-3.07154 z"
       id="path1971"
       inkscape:connector-curvature="0" />
    <path
       style="fill:#654937"
       d="m 214.03031,459.32839 c -3.00832,-0.24648 -5.93332,-0.80606 -6.5,-1.24351 -0.56667,-0.43746 -5.30531,-1.36006 -10.53031,-2.05024 -5.225,-0.69017 -14,-2.60965 -19.5,-4.26549 C 172,450.1133 165.475,448.1859 163,447.48603 154.57179,445.10275 140.09502,438.31016 124.5,429.4216 105.21324,418.42889 73,390.35376 73,384.53729 73,383.04097 78.665466,374.0289 84.339196,366.5 c 8.187082,-10.86406 25.908254,-25.16989 41.180734,-33.24411 6.44333,-3.40645 23.38124,-9.26371 30.98007,-10.71315 3.85,-0.73437 8.98165,-2.07852 11.40367,-2.987 6.30015,-2.36314 6.98378,-1.81388 5.80904,4.66725 l -0.97949,5.40388 4.52082,5.93657 c 5.67452,7.45154 10.24746,11.08069 19.74596,15.67067 8.11231,3.92013 18.44309,6.50022 29.85943,7.45732 11.49665,0.96384 29.416,-2.77695 39.72972,-8.29385 9.99007,-5.34378 21.84817,-16.49202 21.04147,-19.78187 -0.28534,-1.16364 -0.83356,-4.52815 -1.21826,-7.47669 l -0.69947,-5.36099 3.39356,0.73142 c 1.86645,0.40229 4.51855,1.29504 5.89355,1.9839 1.375,0.68885 5.425,1.75644 9,2.37241 12.24808,2.11033 32.66282,10.43858 43,17.54198 7.74508,5.32218 20.43882,16.80122 26.64169,24.09226 7.14005,8.39264 13.35831,17.70723 13.35831,20.00998 0,5.84222 -32.16183,33.8896 -51.5,44.91162 -15.59502,8.88856 -30.07179,15.68115 -38.5,18.06443 -2.475,0.69987 -9,2.62727 -14.5,4.28312 -5.5,1.65584 -14.275,3.57532 -19.5,4.26549 -5.225,0.69018 -10.00803,1.64962 -10.62896,2.13211 -1.26806,0.98531 -29.9037,1.85291 -38.34073,1.16164 z M 347.5,417.09733 c 4.78158,-0.77139 5.78793,-3.60664 2.26517,-6.38175 -12.21316,-9.62109 -13.67751,-9.82662 -22.69839,-3.18582 -5.99854,4.41587 -8.30622,7.65047 -7.31549,10.25385 0.37929,0.99669 3.08814,1.13557 12.1186,0.62132 6.39656,-0.36427 13.43011,-0.95268 15.63011,-1.3076 z M 203.89827,248.6778 C 197.06057,240.32611 195.23412,228 200.8343,228 c 1.10909,0 2.23505,1.30288 3.03301,3.50958 2.16142,5.97731 4.34994,6.49042 27.68303,6.49042 H 252.2 l 3.4,-3.4 c 1.87,-1.87 3.4,-4.12 3.4,-5 0,-2.21796 1.71366,-2.00355 2.98586,0.37359 1.94598,3.63608 -1.40772,13.71447 -6.41445,19.27641 -3.00026,3.33298 -3.86849,3.38782 -7.91704,0.5 -2.38341,-1.70008 -4.37643,-2.20713 -8.15437,-2.07459 -2.75,0.0965 -7.025,0.17542 -9.5,0.17542 -2.475,0 -6.75,-0.0789 -9.5,-0.17542 -3.77794,-0.13254 -5.77096,0.37451 -8.15437,2.07459 -4.09416,2.92035 -5.30435,2.76674 -8.44736,-1.0722 z M 163,204.30962 c -6.87338,-1.14928 -15.59079,-4.84857 -19.28007,-8.18161 -7.62506,-6.88878 -10.58115,-13.47577 -11.68238,-26.03156 C 131.21955,160.76992 130.01728,159 124.5,159 c -4.23052,0 -6.14915,-1.77619 -6.8271,-6.32027 -0.7873,-5.277 0.60112,-8.24139 4.79127,-10.22975 1.96245,-0.93125 3.89834,-2.20096 4.30196,-2.82158 0.40363,-0.62062 0.78587,-10.5784 0.84943,-22.1284 0.1434,-26.059109 2.895,-43.327177 8.79946,-55.222269 C 138.38676,58.305484 140,54.798769 140,54.485032 c 0,-1.402536 8.33184,-11.489555 13.64951,-16.524913 11.6253,-11.008104 26.12347,-18.864023 39.37324,-21.334626 9.57203,-1.784835 27.01759,-4.17021 37.47725,-5.124356 8.68191,-0.791976 12.86289,-1.8208966 22.88536,-5.63198 8.55779,-3.2541343 10.50136,-2.9093962 8.48964,1.505843 -1.95458,4.289838 0.014,5.057363 5.49564,2.1427248 6.40401,-3.4050456 7.9646,-3.3205639 7.15027,0.3870749 -0.3509,1.5976403 -0.2353,3.1536843 0.25689,3.4578763 0.4922,0.304192 3.78104,-0.32453 7.30855,-1.397161 3.52751,-1.07263 6.97615,-1.953674 7.66365,-1.957876 1.66693,-0.010187 1.52775,3.882505 -0.25,6.992361 -2.34119,4.095486 -1.77484,5.485777 4.11457,10.100568 11.57537,9.070173 18.63594,15.54949 22.45165,20.603366 2.16358,2.865639 3.93378,5.494275 3.93378,5.841415 0,0.347139 1.28056,3.403947 2.84569,6.792906 4.003,8.667636 4.78769,11.68949 6.27411,24.161745 1.15631,9.702414 1.43598,30.43327 0.64529,47.83378 l -0.26509,5.83377 5.5,2.87708 c 6.51354,3.40726 8.15774,5.96955 7.35081,11.45537 -0.71071,4.83163 -2.57236,6.49501 -7.29194,6.51531 -5.75007,0.0247 -6.42858,0.99276 -7.14389,10.19202 -1.83349,23.57979 -21.64214,37.40996 -50.85485,35.50628 C 252.96002,203.1431 240,190.04728 240,167.26515 c 0,-5.85823 -0.1854,-6.38514 -2.5651,-7.2899 -3.64611,-1.38625 -13.75832,-1.20849 -15.62999,0.27475 -1.11156,0.88088 -1.72696,3.63194 -2.08397,9.31624 -1.12792,17.95822 -12.366,29.70789 -32.49425,33.9735 -6.28835,1.33264 -18.53379,1.72177 -24.22669,0.76988 z m 29,-10.34459 c 10.67549,-3.66176 18.5996,-11.69303 20.49367,-20.77083 1.23735,-5.93032 -0.41645,-14.73473 -3.69848,-19.68968 -3.67814,-5.553 -4.49529,-6.01038 -14.41163,-8.06677 -5.95509,-1.23493 -11.30822,-1.52006 -21.88356,-1.1656 -17.49765,0.58648 -23.83152,2.20856 -28.16727,7.21353 -9.64852,11.13775 -5.21601,35.54629 7.47694,41.17335 10.94213,4.85088 28.21883,5.41229 40.19033,1.306 z m -31,-25.84867 c 0,-3.15394 7.13071,-8.70834 12.98169,-10.11197 8.13993,-1.95274 15.23585,-0.0361 20.9341,5.6543 3.42076,3.41606 4.14689,4.67863 3.22248,5.60304 -0.92442,0.92442 -1.58145,0.91218 -2.91579,-0.0543 C 190.93767,166.10384 186.72912,165 179.18106,165 c -6.48823,0 -8.71519,0.44238 -12.58504,2.5 C 160.96399,170.49458 161,170.49062 161,168.11636 Z m 139,25.84867 c 7.87776,-2.70212 14.05185,-7.4959 17.74438,-13.77738 2.41563,-4.10928 2.74563,-5.6747 2.67467,-12.68765 -0.0881,-8.71009 -1.27267,-11.99079 -6.25528,-17.32468 C 310.86786,146.64703 307,145.90447 307,148.8 c 0,2.10447 -1.84463,4.2 -3.69712,4.2 -0.71341,0 -2.98591,-1.52388 -5.05,-3.3864 -4.56263,-4.11708 -9.52528,-5.60093 -18.75288,-5.6072 -7.06165,-0.005 -20.26153,2.26042 -23.60789,4.05134 -3.07458,1.64547 -6.68367,7.21131 -7.95451,12.26726 -2.49121,9.91105 0.95573,23.5769 7.44348,29.51063 2.05238,1.87713 11.52271,5.61571 16.61892,6.56061 5.98912,1.11047 21.63527,-0.24807 28,-2.43121 z m -38,-25.84867 c 0,-3.15394 7.13071,-8.70834 12.98169,-10.11197 8.13993,-1.95274 15.23585,-0.0361 20.9341,5.6543 5.67625,5.66846 4.49726,7.56807 -2.41579,3.89237 C 289.48006,165.41363 287.37221,165 280.5,165 c -6.82844,0 -8.98958,0.4187 -12.90398,2.5 C 261.96399,170.49458 262,170.49062 262,168.11636 Z m -15.22742,-30.79614 13.72742,-4.67978 17.74643,-0.43165 c 11.04084,-0.26856 21.43187,0.0441 27.5,0.8274 5.36446,0.69249 11.07345,1.30513 12.68664,1.36144 l 2.93306,0.10237 -0.23584,-6 c -0.61286,-15.59124 -5.77556,-34.072946 -12.11044,-43.353532 -4.15023,-6.080097 -5.9221,-7.811744 -16.7817,-16.400737 -3.30611,-2.614847 -7.5247,-6.746951 -9.37463,-9.182453 -4.11053,-5.411646 -6.19691,-6.408277 -11.36352,-5.42818 -8.65941,1.642675 -42.34053,2.97101 -67.84514,2.675717 L 176.80973,56.5 l -11.37484,12 c -11.49541,12.127212 -17.59773,20.689023 -19.95661,28 -0.70983,2.2 -2.24771,6.61861 -3.41752,9.81913 -2.49238,6.81902 -6.33895,27.80917 -5.28544,28.84187 0.39857,0.3907 3.64968,0.0801 7.22468,-0.69019 3.575,-0.7703 7.72184,-1.41636 9.2152,-1.43568 1.55148,-0.0201 4.17685,-1.31847 6.1255,-3.02941 4.64266,-4.0763 15.20071,-8.87318 21.9467,-9.97112 5.99403,-0.97555 16.72982,0.10486 21.17716,2.1312 1.80929,0.82437 2.53494,1.84086 2.33122,3.26558 -0.2493,1.74359 -0.92428,2.03288 -4.29578,1.84116 -14.77837,-0.84037 -21.19332,-0.58725 -24.75,0.97658 -5.98213,2.63027 -4.62987,3.75088 4.52623,3.75088 15.86053,0 28.20715,2.48324 41.72377,8.39176 5.62992,2.46101 10.20917,1.89323 24.77258,-3.07154 z"
       id="path1969"
       inkscape:connector-curvature="0" />
    <path
       style="fill:#384a58"
       d="m 214.03031,459.32839 c -3.00832,-0.24648 -5.93332,-0.80606 -6.5,-1.24351 -0.56667,-0.43746 -5.30531,-1.36006 -10.53031,-2.05024 -5.225,-0.69017 -14,-2.60965 -19.5,-4.26549 C 172,450.1133 165.475,448.1859 163,447.48603 154.57179,445.10275 140.09502,438.31016 124.5,429.4216 105.21324,418.42889 73,390.35376 73,384.53729 73,383.04097 78.665466,374.0289 84.339196,366.5 c 8.187082,-10.86406 25.908254,-25.16989 41.180734,-33.24411 6.44333,-3.40645 23.38124,-9.26371 30.98007,-10.71315 3.85,-0.73437 8.98165,-2.07852 11.40367,-2.987 6.29791,-2.3623 7.05197,-1.78683 5.8204,4.44189 -1.27194,6.43288 -0.0757,9.26815 7.32853,17.36954 13.59514,14.87525 42.26684,21.38821 69.21805,15.72333 14.73423,-3.097 28.37196,-11.19529 35.02825,-20.80031 2.55691,-3.68963 2.60441,-4.01985 1.51975,-10.56559 -0.61581,-3.71631 -0.84323,-7.03336 -0.50536,-7.37122 0.33786,-0.33786 2.76809,0.15438 5.4005,1.09388 2.63242,0.93949 7.93621,2.35677 11.78621,3.14949 13.89466,2.86095 33.31646,10.81317 43.5,17.81099 7.74508,5.32218 20.43882,16.80122 26.64169,24.09226 7.14005,8.39264 13.35831,17.70723 13.35831,20.00998 0,5.84222 -32.16183,33.8896 -51.5,44.91162 -15.59502,8.88856 -30.07179,15.68115 -38.5,18.06443 -2.475,0.69987 -9,2.62727 -14.5,4.28312 -5.5,1.65584 -14.275,3.57532 -19.5,4.26549 -5.225,0.69018 -10.00803,1.64962 -10.62896,2.13211 -1.26806,0.98531 -29.9037,1.85291 -38.34073,1.16164 z M 347.5,417.09733 c 4.78158,-0.77139 5.78793,-3.60664 2.26517,-6.38175 -12.21316,-9.62109 -13.67751,-9.82662 -22.69839,-3.18582 -5.99854,4.41587 -8.30622,7.65047 -7.31549,10.25385 0.37929,0.99669 3.08814,1.13557 12.1186,0.62132 6.39656,-0.36427 13.43011,-0.95268 15.63011,-1.3076 z M 204.17689,247.22334 c -1.64514,-2.07716 -3.75441,-6.40213 -4.68727,-9.61104 -1.59585,-5.48954 -1.59557,-5.93126 0.005,-7.47335 1.57868,-1.52115 1.78376,-1.49798 2.85324,0.32232 0.63377,1.0787 2.35519,3.2162 3.82539,4.75 L 208.84615,238 H 231 253.15385 l 2.75961,-2.75962 c 1.51779,-1.51778 3.00192,-3.43028 3.29808,-4.25 0.40496,-1.12086 0.83827,-1.20917 1.74768,-0.35616 1.86525,1.74957 -1.43082,12.14053 -5.32077,16.7739 l -3.21681,3.8316 -5.25054,-2.74544 c -4.48852,-2.34698 -5.93417,-2.64118 -9.96082,-2.02712 -2.59066,0.39507 -5.83528,0.71831 -7.21028,0.71831 -1.375,0 -4.61962,-0.32324 -7.21028,-0.71831 -3.99239,-0.60883 -5.47556,-0.31815 -9.73159,1.90726 -2.76173,1.44407 -5.21679,2.62558 -5.4557,2.62558 -0.2389,0 -1.7804,-1.69949 -3.42554,-3.77666 z m -39.97724,-44.19652 c -19.43179,-3.00854 -29.36954,-13.51702 -31.19597,-32.98755 -0.4726,-5.03819 -1.39687,-9.80811 -2.05392,-10.59981 -0.65706,-0.7917 -2.60205,-1.44609 -4.3222,-1.4542 -4.68915,-0.0221 -7.89619,-2.07676 -8.82172,-5.65182 -1.15283,-4.45301 0.46991,-7.89593 4.65833,-9.88346 1.96245,-0.93125 3.89834,-2.20096 4.30196,-2.82158 0.40363,-0.62062 0.78587,-10.5784 0.84943,-22.1284 0.18552,-33.714652 4.62982,-51.837248 17.04462,-69.503152 10.03693,-14.282257 30.24456,-27.369393 47.8665,-30.999936 8.91581,-1.836871 27.67119,-4.396621 40.65495,-5.548621 3.7132,-0.329458 11.57562,-2.2870975 17.69746,-4.4064346 6.05871,-2.0974792 11.24663,-3.5827994 11.52872,-3.3007115 0.28209,0.2820879 -0.12957,2.0504953 -0.91479,3.9297942 -1.95869,4.6878089 -0.13372,5.2512399 6.15885,1.9014475 6.61151,-3.5195751 7.59131,-3.3855647 6.78215,0.9276134 -0.78618,4.190727 -0.4514,4.250166 8.53987,1.516246 3.89334,-1.183824 6.83694,-1.605414 7.3847,-1.057655 0.54776,0.54776 0.25921,2.539346 -0.72388,4.996351 C 288.73562,18.201984 288,20.655602 288,21.407427 c 0,0.751825 4.42496,4.985023 9.83325,9.407107 11.79281,9.642377 19.80303,18.188513 22.17676,23.660463 0.96033,2.213752 2.96685,6.673118 4.45894,9.909704 4.76341,10.332593 6.81633,36.600009 5.31159,67.962529 l -0.28054,5.84723 5.83013,3.04842 c 6.47175,3.38392 8.15506,6.10371 6.86403,11.09056 -0.96074,3.71105 -4.15698,5.63098 -9.40898,5.65182 -4.66616,0.0185 -5.78518,1.89585 -5.78518,9.7056 0,7.31035 -1.13149,11.27891 -5.06733,17.77302 -3.98188,6.57007 -11.82593,12.26329 -21.16564,15.36205 -10.70525,3.55183 -27.34707,3.53888 -37.42808,-0.0291 -9.09641,-3.21951 -14.45339,-7.70098 -18.35547,-15.35557 -2.58602,-5.07292 -3.1804,-7.59499 -3.65293,-15.5 -0.41151,-6.88432 -0.99069,-9.77977 -2.13858,-10.69124 -2.07789,-1.64993 -17.35183,-1.69014 -18.99197,-0.05 -0.66,0.66 -1.2196,3.6975 -1.24355,6.75 -0.10037,12.79057 -4.42504,21.96109 -13.435,28.48908 -9.65093,6.99238 -27.57122,10.71669 -41.3218,8.58774 z M 192,194.99614 c 8.89559,-3.10553 15.00986,-7.78076 18.56252,-14.19369 2.54094,-4.58665 2.92996,-6.3149 2.88175,-12.80245 -0.0703,-9.46525 -1.50643,-13.68484 -6.20987,-18.24601 C 202.05747,144.73366 194.05557,143 176.06061,143 c -22.54119,0 -30.73552,2.81929 -35.68686,12.27819 -2.08167,3.97677 -2.81921,14.40804 -1.46863,20.77125 2.35572,11.0989 10.07105,18.38863 22.14018,20.91887 7.64377,1.60248 23.63344,0.58376 30.9547,-1.97217 z m -29,-27.65406 c 0,-1.53568 5.22834,-6.1122 8.3151,-7.27846 C 172.8634,159.47863 176.54661,159 179.5,159 c 6.46106,0 10.08132,1.25082 13.75,4.75071 3.70432,3.53389 3.4719,4.60087 -0.5,2.29536 -6.57946,-3.81909 -23.43262,-3.45325 -27.91808,0.60604 C 163.82437,167.56393 163,167.87442 163,167.34208 Z m 136.99118,27.70319 c 8.77542,-3.01341 14.99135,-7.78057 18.57134,-14.24282 2.54094,-4.58665 2.92996,-6.3149 2.88175,-12.80245 -0.0307,-4.125 -0.60017,-9.10303 -1.2656,-11.06229 -1.58058,-4.65378 -7.86651,-10.72528 -11.9495,-11.54188 C 305.14139,144.77828 305,144.88683 305,147.875 c 0,4.04208 -2.12552,4.09999 -6.59065,0.17955 -4.38149,-3.847 -9.00611,-5.04217 -19.53668,-5.04897 -21.96356,-0.0142 -31.10582,5.97655 -32.5388,21.32205 -1.13924,12.19977 3.75363,24.10514 11.75488,28.60209 9.72397,5.46518 29.27362,6.45219 41.90243,2.11555 z M 264,167.15337 c 0,-1.37866 5.4115,-5.9927 8.3151,-7.08975 C 273.8634,159.47863 277.54661,159 280.5,159 c 6.46106,0 10.08132,1.25082 13.75,4.75071 3.01861,2.87973 3.8711,5.57385 0.91808,2.9014 -4.48546,-4.05929 -21.33862,-4.42513 -27.91808,-0.60604 -1.7875,1.03756 -3.25,1.53585 -3.25,1.1073 z M 246.72393,138.28106 260.5,133.56212 283,133.53106 c 14.99831,-0.0207 25.09109,0.43409 30.27153,1.36408 4.27434,0.76733 8.06702,1.09964 8.42818,0.73848 1.94747,-1.94746 -0.82969,-22.56123 -4.75946,-35.32773 C 312.62678,86.292885 308.14564,80.345534 292.5988,68 c -3.11678,-2.475 -7.54778,-6.916276 -9.84665,-9.869502 l -4.17976,-5.369501 -6.03619,0.61203 c -17.85095,1.809968 -42.11094,2.69168 -67.10134,2.43875 -25.39383,-0.257013 -28.32069,-0.116606 -30.75,1.47514 C 173.20819,58.254471 172,59.378602 172,59.784986 c 0,0.406384 -4.10498,5.00851 -9.12217,10.226947 -11.15645,11.603944 -15.65539,18.703362 -20.37044,32.144937 -3.62664,10.33877 -7.77492,30.98238 -6.75823,33.63183 0.38543,1.00442 1.42224,1.21248 3.64475,0.73139 1.70835,-0.36979 6.37199,-1.26227 10.36364,-1.98329 4.85258,-0.87653 8.41671,-2.19508 10.75559,-3.97903 1.92392,-1.46744 6.53303,-4.10576 10.24245,-5.86293 6.11485,-2.89661 7.63119,-3.19459 16.24441,-3.1922 9.76913,0.003 17.42538,1.76405 16.70058,3.842 -0.22165,0.63545 -1.48245,1.04348 -2.80179,0.90674 -14.90704,-1.54499 -19.51335,-1.41486 -25.12978,0.70995 -10.3394,3.9116 -8.70335,5.99702 4.73099,6.03043 12.93044,0.0322 25.65862,2.27486 36,6.34318 4.95,1.94734 10.67577,3.56862 12.72393,3.60284 2.04816,0.0342 9.92316,-2.0613 17.5,-4.65672 z"
       id="path1967"
       inkscape:connector-curvature="0" />
    <path
       style="fill:#2e4250"
       d="m 216.0194,459.25284 c -4.11433,-0.19237 -6.92653,-0.6922 -6.24934,-1.11073 0.6772,-0.41853 -3.60653,-1.33088 -9.5194,-2.02744 -6.75412,-0.79567 -15.30743,-2.72525 -23.00834,-5.19057 C 170.50059,448.76584 164.34449,447 163.56209,447 c -0.7824,0 -4.30305,-1.33325 -7.82367,-2.96279 -5.34105,-2.47213 -6.65806,-3.58996 -7.95271,-6.75 -2.77798,-6.78063 -6.95745,-17.62695 -9.74406,-25.28721 -1.50058,-4.125 -3.49955,-8.98993 -4.44218,-10.81095 l -1.71386,-3.31094 5.09011,-7.93503 5.09011,-7.93503 -2.23275,-3.01995 c -1.22801,-1.66097 -3.26782,-3.69816 -4.53291,-4.52708 C 134.03508,373.6321 133,372.34626 133,371.60359 c 0,-1.22412 5.10827,-9.98014 12.20895,-20.92722 3.78597,-5.8368 10.74523,-16.9565 14.19305,-22.67806 2.82412,-4.68656 5.06956,-6.34189 10.95846,-8.07851 l 2.86046,-0.84355 -0.68406,5.47504 c -0.64122,5.13216 -0.48086,5.74038 2.56058,9.71188 10.05018,13.12343 20.01748,19.33671 36.72775,22.89482 29.28297,6.2352 58.40936,-1.87776 73.15582,-20.37708 3.52002,-4.41584 3.70855,-4.99417 2.93392,-9 -1.51155,-7.81663 -1.29216,-8.75267 1.83507,-7.82943 5.77326,1.7044 8.03869,3.38485 10.848,8.04683 3.44782,5.72156 10.40708,16.84126 14.19305,22.67806 7.10068,10.94708 12.20895,19.7031 12.20895,20.92722 0,0.74267 -1.03508,2.02851 -2.30017,2.85743 -1.26509,0.82892 -3.3049,2.86611 -4.53291,4.52708 l -2.23275,3.01995 5.04074,7.85805 5.04073,7.85806 -2.54677,5.38792 c -1.40072,2.96336 -3.48654,6.58447 -4.63514,8.04693 -1.1486,1.46246 -2.21835,4.38746 -2.37723,6.5 -0.23801,3.16476 -3.48411,13.25731 -6.94777,21.60153 C 310.77906,441.01838 299.13122,447 296.43791,447 c -0.7824,0 -6.9385,1.76584 -13.68023,3.9241 -7.70091,2.46532 -16.25422,4.3949 -23.00834,5.19057 -5.91287,0.69656 -10.27452,1.56075 -9.69256,1.92042 1.09695,0.67795 -18.01013,2.11631 -23.46234,1.76621 -1.70194,-0.10928 -6.46071,-0.35609 -10.57504,-0.54846 z m -11.84251,-212.0295 c -1.64514,-2.07716 -3.75441,-6.40213 -4.68727,-9.61104 -1.59585,-5.48954 -1.59557,-5.93126 0.005,-7.47335 1.57868,-1.52115 1.78376,-1.49798 2.85324,0.32232 0.63377,1.0787 2.35519,3.2162 3.82539,4.75 L 208.84615,238 H 231 253.15385 l 2.75961,-2.75962 c 1.51779,-1.51778 3.00192,-3.43028 3.29808,-4.25 0.40496,-1.12086 0.83827,-1.20917 1.74768,-0.35616 1.86525,1.74957 -1.43082,12.14053 -5.32077,16.7739 l -3.21681,3.8316 -5.25054,-2.74544 c -4.48852,-2.34698 -5.93417,-2.64118 -9.96082,-2.02712 -2.59066,0.39507 -5.83528,0.71831 -7.21028,0.71831 -1.375,0 -4.61962,-0.32324 -7.21028,-0.71831 -3.99239,-0.60883 -5.47556,-0.31815 -9.73159,1.90726 -2.76173,1.44407 -5.21679,2.62558 -5.4557,2.62558 -0.2389,0 -1.7804,-1.69949 -3.42554,-3.77666 z m -39.97724,-44.19652 c -19.43179,-3.00854 -29.36954,-13.51702 -31.19597,-32.98755 -0.4726,-5.03819 -1.34897,-9.7504 -1.94749,-10.47156 -0.59851,-0.72117 -3.19114,-1.54824 -5.76139,-1.83795 -5.52891,-0.62319 -7.2948,-2.5519 -7.2948,-7.9674 0,-3.28204 0.46242,-4.10871 3.10951,-5.55887 7.66238,-4.19769 7.18034,-2.41249 7.36814,-27.28757 C 128.61698,98.46066 129.04229,92.379725 130.88473,82.5 136.18128,54.098228 149.5954,36.192971 175.5,22.947244 c 10.53453,-5.386592 27.97328,-8.863043 57.68163,-11.498953 3.7132,-0.329458 11.57562,-2.2870975 17.69746,-4.4064346 6.05871,-2.0974792 11.24663,-3.5827994 11.52872,-3.3007115 0.28209,0.2820879 -0.12957,2.0504953 -0.91479,3.9297942 -1.95869,4.6878089 -0.13372,5.2512399 6.15885,1.9014475 6.61151,-3.5195751 7.59131,-3.3855647 6.78215,0.9276134 -0.78618,4.190727 -0.4514,4.250166 8.53987,1.516246 3.89334,-1.183824 6.83694,-1.605414 7.3847,-1.057655 0.54776,0.54776 0.25921,2.539346 -0.72388,4.996351 C 288.73562,18.201984 288,20.655602 288,21.407427 c 0,0.751825 4.42496,4.985023 9.83325,9.407107 21.86647,17.879101 27.64358,28.201889 30.76024,54.96374 1.5135,12.995948 1.52742,17.872716 0.13595,47.628106 -0.22734,4.8615 -0.18827,4.92885 4.27056,7.36114 8.77589,4.78724 9,5.01296 9,9.0644 0,5.44467 -1.76281,7.28231 -7.56081,7.88177 -2.77849,0.28727 -5.48602,1.2014 -6.18919,2.08962 -0.68907,0.8704 -1.25,4.30082 -1.25,7.64442 0,7.55427 -1.10259,11.47434 -5.06733,18.01615 -3.98188,6.57007 -11.82593,12.26329 -21.16564,15.36205 -10.70525,3.55183 -27.34707,3.53888 -37.42808,-0.0291 -9.09641,-3.21951 -14.45339,-7.70098 -18.35547,-15.35557 -2.58602,-5.07292 -3.1804,-7.59499 -3.65293,-15.5 -0.41151,-6.88432 -0.99069,-9.77977 -2.13858,-10.69124 -2.07789,-1.64993 -17.35183,-1.69014 -18.99197,-0.05 -0.66,0.66 -1.2196,3.6975 -1.24355,6.75 -0.10037,12.79057 -4.42504,21.96109 -13.435,28.48908 -9.65093,6.99238 -27.57122,10.71669 -41.3218,8.58774 z M 192,194.99614 c 8.89559,-3.10553 15.00986,-7.78076 18.56252,-14.19369 2.54094,-4.58665 2.92996,-6.3149 2.88175,-12.80245 -0.0703,-9.46525 -1.50643,-13.68484 -6.20987,-18.24601 C 202.05747,144.73366 194.05557,143 176.06061,143 c -22.54119,0 -30.73552,2.81929 -35.68686,12.27819 -2.08167,3.97677 -2.81921,14.40804 -1.46863,20.77125 2.35572,11.0989 10.07105,18.38863 22.14018,20.91887 7.64377,1.60248 23.63344,0.58376 30.9547,-1.97217 z m -29,-27.65406 c 0,-1.53568 5.22834,-6.1122 8.3151,-7.27846 C 172.8634,159.47863 176.54661,159 179.5,159 c 6.46106,0 10.08132,1.25082 13.75,4.75071 3.70432,3.53389 3.4719,4.60087 -0.5,2.29536 -6.57946,-3.81909 -23.43262,-3.45325 -27.91808,0.60604 C 163.82437,167.56393 163,167.87442 163,167.34208 Z m 136.99118,27.70319 c 8.77542,-3.01341 14.99135,-7.78057 18.57134,-14.24282 2.54094,-4.58665 2.92996,-6.3149 2.88175,-12.80245 -0.0307,-4.125 -0.60017,-9.10303 -1.2656,-11.06229 -1.58058,-4.65378 -7.86651,-10.72528 -11.9495,-11.54188 C 305.14139,144.77828 305,144.88683 305,147.875 c 0,4.04208 -2.12552,4.09999 -6.59065,0.17955 -4.38149,-3.847 -9.00611,-5.04217 -19.53668,-5.04897 -21.96356,-0.0142 -31.10582,5.97655 -32.5388,21.32205 -1.13924,12.19977 3.75363,24.10514 11.75488,28.60209 9.72397,5.46518 29.27362,6.45219 41.90243,2.11555 z M 264,167.15337 c 0,-1.37866 5.4115,-5.9927 8.3151,-7.08975 C 273.8634,159.47863 277.54661,159 280.5,159 c 6.46106,0 10.08132,1.25082 13.75,4.75071 3.01861,2.87973 3.8711,5.57385 0.91808,2.9014 -4.48546,-4.05929 -21.33862,-4.42513 -27.91808,-0.60604 -1.7875,1.03756 -3.25,1.53585 -3.25,1.1073 z M 246.72393,138.28106 260.5,133.56212 283,133.53106 c 14.99831,-0.0207 25.09109,0.43409 30.27153,1.36408 4.27434,0.76733 8.06702,1.09964 8.42818,0.73848 1.94747,-1.94746 -0.82969,-22.56123 -4.75946,-35.32773 C 312.62678,86.292885 308.14564,80.345534 292.5988,68 c -3.11678,-2.475 -7.54778,-6.916276 -9.84665,-9.869502 l -4.17976,-5.369501 -6.03619,0.61203 c -17.85095,1.809968 -42.11094,2.69168 -67.10134,2.43875 -25.39383,-0.257013 -28.32069,-0.116606 -30.75,1.47514 C 173.20819,58.254471 172,59.378602 172,59.784986 c 0,0.406384 -4.10498,5.00851 -9.12217,10.226947 -11.15645,11.603944 -15.65539,18.703362 -20.37044,32.144937 -3.62664,10.33877 -7.77492,30.98238 -6.75823,33.63183 0.38543,1.00442 1.42224,1.21248 3.64475,0.73139 1.70835,-0.36979 6.37199,-1.26227 10.36364,-1.98329 4.85258,-0.87653 8.41671,-2.19508 10.75559,-3.97903 1.92392,-1.46744 6.53303,-4.10576 10.24245,-5.86293 6.11485,-2.89661 7.63119,-3.19459 16.24441,-3.1922 9.76913,0.003 17.42538,1.76405 16.70058,3.842 -0.22165,0.63545 -1.48245,1.04348 -2.80179,0.90674 -14.90704,-1.54499 -19.51335,-1.41486 -25.12978,0.70995 -10.3394,3.9116 -8.70335,5.99702 4.73099,6.03043 12.93044,0.0322 25.65862,2.27486 36,6.34318 4.95,1.94734 10.67577,3.56862 12.72393,3.60284 2.04816,0.0342 9.92316,-2.0613 17.5,-4.65672 z"
       id="path1965"
       inkscape:connector-curvature="0" />
    <path
       style="fill:#4e382b"
       d="m 217.51586,459.31435 c -4.39127,-0.2238 -7.42847,-0.75032 -6.74933,-1.17006 0.67914,-0.41973 -3.603,-1.33627 -9.51587,-2.03676 -16.17472,-1.9162 -18.48361,-2.78965 -20.04926,-7.58467 -0.71423,-2.18743 -1.76075,-7.36243 -2.3256,-11.5 -0.56485,-4.13757 -2.11969,-14.72286 -3.45521,-23.52286 -1.33552,-8.8 -2.87613,-20.95 -3.42357,-27 -1.08431,-11.98312 -1.1574,-47.17433 -0.10801,-52 l 0.65239,-3 2.4793,2.94975 c 8.27783,9.84854 11.91508,12.99843 19.29312,16.70804 15.50752,7.79702 36.48206,10.02633 55.90965,5.94242 12.60755,-2.65026 22.13411,-7.61465 30.5784,-15.93473 4.36683,-4.30261 6.75602,-6.00759 7.44829,-5.31532 1.73785,1.73785 0.20268,51.39119 -2.09158,67.64984 -4.14279,29.3585 -6.85305,45.06059 -8.21785,47.61076 -1.19778,2.23807 -5.30977,3.30419 -19.19139,4.9758 -6.15632,0.74134 -10.21619,1.63395 -9.5,2.0887 0.71297,0.45271 -0.94157,0.8007 -3.84846,0.80943 -2.80452,0.008 -8.42952,0.17759 -12.5,0.37594 -4.07049,0.19834 -10.99374,0.17752 -15.38502,-0.0463 z M 204.17689,247.22334 c -1.64514,-2.07716 -3.75441,-6.40213 -4.68727,-9.61104 -1.59585,-5.48954 -1.59557,-5.93126 0.005,-7.47335 1.57868,-1.52115 1.78376,-1.49798 2.85324,0.32232 0.63377,1.0787 2.35519,3.2162 3.82539,4.75 L 208.84615,238 H 231 253.15385 l 2.75961,-2.75962 c 1.51779,-1.51778 3.00192,-3.43028 3.29808,-4.25 0.40496,-1.12086 0.83827,-1.20917 1.74768,-0.35616 1.86525,1.74957 -1.43082,12.14053 -5.32077,16.7739 l -3.21681,3.8316 -5.25054,-2.74544 c -4.48852,-2.34698 -5.93417,-2.64118 -9.96082,-2.02712 -2.59066,0.39507 -5.83528,0.71831 -7.21028,0.71831 -1.375,0 -4.61962,-0.32324 -7.21028,-0.71831 -3.99239,-0.60883 -5.47556,-0.31815 -9.73159,1.90726 -2.76173,1.44407 -5.21679,2.62558 -5.4557,2.62558 -0.2389,0 -1.7804,-1.69949 -3.42554,-3.77666 z M 164.19965,203.02682 C 144.76786,200.01828 134.83011,189.5098 133.00368,170.03927 132.0532,159.90667 131.09331,158 126.94265,158 c -5.19268,0 -7.78446,-1.63986 -8.48384,-5.36786 -0.91192,-4.86099 0.18348,-7.43962 3.86397,-9.096 6.41455,-2.88682 6.20798,-2.03499 6.19244,-25.53614 -0.0121,-18.295586 0.33751,-23.437552 2.34568,-34.5 5.35867,-29.51946 18.31246,-47.091228 44.6391,-60.552756 10.53453,-5.386592 27.97328,-8.863043 57.68163,-11.498953 3.7132,-0.329458 11.57562,-2.2870975 17.69746,-4.4064346 6.05871,-2.0974792 11.24663,-3.5827994 11.52872,-3.3007115 0.28209,0.2820879 -0.12957,2.0504953 -0.91479,3.9297942 -1.95869,4.6878089 -0.13372,5.2512399 6.15885,1.9014475 6.61151,-3.5195751 7.59131,-3.3855647 6.78215,0.9276134 -0.78618,4.190727 -0.4514,4.250166 8.53987,1.516246 3.89334,-1.183824 6.83694,-1.605414 7.3847,-1.057655 0.54776,0.54776 0.25921,2.539346 -0.72388,4.996351 C 288.73562,18.201984 288,20.655602 288,21.407427 c 0,0.751825 4.45454,5.009206 9.89898,9.460846 21.37119,17.474139 26.87223,27.042676 30.25849,52.631727 1.9453,14.700138 2.03782,34.04865 0.23967,50.12383 l -0.57315,5.12384 6.53956,3.18586 c 7.06967,3.44411 8.2176,5.15515 7.17764,10.69861 C 340.81965,156.47826 338.24807,158 332.47008,158 328.14964,158 327,160.03672 327,167.69086 c 0,7.31035 -1.13149,11.27891 -5.06733,17.77302 -3.98188,6.57007 -11.82593,12.26329 -21.16564,15.36205 -10.70525,3.55183 -27.34707,3.53888 -37.42808,-0.0291 -9.09641,-3.21951 -14.45339,-7.70098 -18.35547,-15.35557 -2.58602,-5.07292 -3.1804,-7.59499 -3.65293,-15.5 -0.41151,-6.88432 -0.99069,-9.77977 -2.13858,-10.69124 -2.07789,-1.64993 -17.35183,-1.69014 -18.99197,-0.05 -0.66,0.66 -1.2196,3.6975 -1.24355,6.75 -0.10037,12.79057 -4.42504,21.96109 -13.435,28.48908 -9.65093,6.99238 -27.57122,10.71669 -41.3218,8.58774 z M 192,194.99614 c 8.89559,-3.10553 15.00986,-7.78076 18.56252,-14.19369 2.54094,-4.58665 2.92996,-6.3149 2.88175,-12.80245 -0.0703,-9.46525 -1.50643,-13.68484 -6.20987,-18.24601 C 202.05747,144.73366 194.05557,143 176.06061,143 c -22.54119,0 -30.73552,2.81929 -35.68686,12.27819 -2.08167,3.97677 -2.81921,14.40804 -1.46863,20.77125 2.35572,11.0989 10.07105,18.38863 22.14018,20.91887 7.64377,1.60248 23.63344,0.58376 30.9547,-1.97217 z m -29,-27.65406 c 0,-1.53568 5.22834,-6.1122 8.3151,-7.27846 C 172.8634,159.47863 176.54661,159 179.5,159 c 6.46106,0 10.08132,1.25082 13.75,4.75071 3.70432,3.53389 3.4719,4.60087 -0.5,2.29536 -6.57946,-3.81909 -23.43262,-3.45325 -27.91808,0.60604 C 163.82437,167.56393 163,167.87442 163,167.34208 Z m 136.99118,27.70319 c 8.77542,-3.01341 14.99135,-7.78057 18.57134,-14.24282 2.54094,-4.58665 2.92996,-6.3149 2.88175,-12.80245 -0.0307,-4.125 -0.60017,-9.10303 -1.2656,-11.06229 -1.58058,-4.65378 -7.86651,-10.72528 -11.9495,-11.54188 C 305.14139,144.77828 305,144.88683 305,147.875 c 0,4.04208 -2.12552,4.09999 -6.59065,0.17955 -4.38149,-3.847 -9.00611,-5.04217 -19.53668,-5.04897 -21.96356,-0.0142 -31.10582,5.97655 -32.5388,21.32205 -1.13924,12.19977 3.75363,24.10514 11.75488,28.60209 9.72397,5.46518 29.27362,6.45219 41.90243,2.11555 z M 264,167.15337 c 0,-1.37866 5.4115,-5.9927 8.3151,-7.08975 C 273.8634,159.47863 277.54661,159 280.5,159 c 6.46106,0 10.08132,1.25082 13.75,4.75071 3.01861,2.87973 3.8711,5.57385 0.91808,2.9014 -4.48546,-4.05929 -21.33862,-4.42513 -27.91808,-0.60604 -1.7875,1.03756 -3.25,1.53585 -3.25,1.1073 z M 246.72393,138.28106 260.5,133.56212 283,133.53106 c 14.99831,-0.0207 25.09109,0.43409 30.27153,1.36408 4.27434,0.76733 8.06702,1.09964 8.42818,0.73848 1.94747,-1.94746 -0.82969,-22.56123 -4.75946,-35.32773 C 312.62678,86.292885 308.14564,80.345534 292.5988,68 c -3.11678,-2.475 -7.54778,-6.916276 -9.84665,-9.869502 l -4.17976,-5.369501 -6.03619,0.61203 c -17.85095,1.809968 -42.11094,2.69168 -67.10134,2.43875 -25.39383,-0.257013 -28.32069,-0.116606 -30.75,1.47514 C 173.20819,58.254471 172,59.378602 172,59.784986 c 0,0.406384 -4.10498,5.00851 -9.12217,10.226947 -11.15645,11.603944 -15.65539,18.703362 -20.37044,32.144937 -3.62664,10.33877 -7.77492,30.98238 -6.75823,33.63183 0.38543,1.00442 1.42224,1.21248 3.64475,0.73139 1.70835,-0.36979 6.37199,-1.26227 10.36364,-1.98329 4.85258,-0.87653 8.41671,-2.19508 10.75559,-3.97903 1.92392,-1.46744 6.53303,-4.10576 10.24245,-5.86293 6.11485,-2.89661 7.63119,-3.19459 16.24441,-3.1922 9.76913,0.003 17.42538,1.76405 16.70058,3.842 -0.22165,0.63545 -1.48245,1.04348 -2.80179,0.90674 -14.90704,-1.54499 -19.51335,-1.41486 -25.12978,0.70995 -10.3394,3.9116 -8.70335,5.99702 4.73099,6.03043 12.93044,0.0322 25.65862,2.27486 36,6.34318 4.95,1.94734 10.67577,3.56862 12.72393,3.60284 2.04816,0.0342 9.92316,-2.0613 17.5,-4.65672 z"
       id="path1963"
       inkscape:connector-curvature="0" />
    <path
       style="fill:#2a3b46"
       d="m 217.51586,459.31435 c -4.39127,-0.2238 -7.42847,-0.75032 -6.74933,-1.17006 0.67914,-0.41973 -3.603,-1.33627 -9.51587,-2.03676 -16.17472,-1.9162 -18.48361,-2.78965 -20.04926,-7.58467 -0.71423,-2.18743 -1.76075,-7.36243 -2.3256,-11.5 -0.56485,-4.13757 -2.11969,-14.72286 -3.45521,-23.52286 -1.33552,-8.8 -2.87613,-20.95 -3.42357,-27 -1.09149,-12.06252 -1.15486,-47.22493 -0.0937,-52 l 0.66668,-3 3.64459,5 c 10.93661,15.0039 29.88289,22.93569 54.78542,22.93569 14.60779,0 25.9803,-2.37868 35.99138,-7.52798 7.39833,-3.8054 14.96934,-10.01421 18.17844,-14.90771 1.27434,-1.94322 1.91342,-2.23616 2.86951,-1.31531 1.94959,1.8777 0.61054,50.16039 -1.88075,67.81531 -4.14279,29.3585 -6.85305,45.06059 -8.21785,47.61076 -1.19778,2.23807 -5.30977,3.30419 -19.19139,4.9758 -6.15632,0.74134 -10.21619,1.63395 -9.5,2.0887 0.71297,0.45271 -0.94157,0.8007 -3.84846,0.80943 -2.80452,0.008 -8.42952,0.17759 -12.5,0.37594 -4.07049,0.19834 -10.99374,0.17752 -15.38502,-0.0463 z M 204.79069,245.6044 c -3.02104,-3.78625 -5.38747,-11.62106 -4.33001,-14.33595 0.57425,-1.47434 0.90884,-1.24928 2.01184,1.35325 2.60797,6.15349 3.61346,6.3783 28.52712,6.3783 h 22.55464 l 3.30677,-3.02027 3.30676,-3.02026 -0.71131,3.27026 c -1.01648,4.67331 -2.06261,6.87677 -4.82309,10.15883 l -2.42951,2.88856 -4.60812,-2.23075 c -3.75408,-1.81732 -5.67263,-2.12509 -10.35195,-1.66061 -3.15911,0.31358 -6.41883,0.57014 -7.24383,0.57014 -0.825,0 -4.08472,-0.25656 -7.24383,-0.57014 -4.59434,-0.45604 -6.60876,-0.15144 -10.06573,1.52205 -2.37704,1.1507 -4.51731,2.09218 -4.75616,2.09216 -0.23886,-2e-5 -1.65347,-1.52802 -3.14359,-3.39557 z M 163,202.05003 c -7.23029,-1.36524 -15.21369,-4.86027 -19.22505,-8.41647 -5.72115,-5.07199 -9.58962,-14.34419 -10.40226,-24.93284 C 132.61669,158.85023 131.3366,157 125.27749,157 121.31143,157 118,154.01244 118,150.43426 118,147.30724 119.6568,144 121.2233,144 c 0.63412,0 2.53413,-0.9464 4.22224,-2.10312 l 3.06931,-2.10312 -0.007,-21.64688 c -0.006,-18.498555 0.33824,-23.537602 2.3692,-34.64688 5.27124,-28.833411 19.77161,-47.836231 46.39104,-60.795731 8.65151,-4.211931 19.20163,-6.489834 42.23234,-9.118498 19.51342,-2.227208 24.86242,-3.307425 33.76817,-6.8193944 4.2725,-1.6848509 8.02146,-2.8100838 8.33102,-2.5005174 0.30957,0.3095665 0.0764,1.4718053 -0.51817,2.582753 -3.03993,5.6801618 0.73183,6.7919288 8.43527,2.4863913 l 4.7682,-2.6649966 -0.67018,3.5723521 c -0.80349,4.282981 0.35714,4.984191 5.38569,3.253831 1.925,-0.662406 5.1875,-1.515424 7.25,-1.895596 4.33296,-0.798675 4.64482,0.01354 2.22704,5.800119 -1.87073,4.477289 -1.2011,5.895102 5.00607,10.599287 16.58538,12.569463 23.50591,20.258566 28.09302,31.212964 1.44798,3.45787 3.0627,6.815685 3.58829,7.461811 0.52558,0.646127 1.86065,8.071127 2.96682,16.5 1.97196,15.026115 2.07349,34.289465 0.2659,50.449055 l -0.57315,5.12384 6.49573,3.1645 c 3.57265,1.74048 6.76225,3.85906 7.088,4.70796 2.1425,5.58325 -1.19234,10.37987 -7.21659,10.37987 -6.36832,0 -7.61216,1.65482 -7.82772,10.41412 -0.38259,15.54673 -9.41112,27.1853 -25.08497,32.33673 -6.42847,2.1128 -9.7743,2.5695 -19.27844,2.63147 -19.66957,0.12826 -30.3888,-5.17832 -36.75,-18.19318 -2.90924,-5.95223 -3.25,-7.563 -3.25,-15.36258 C 242,157.86514 241.12217,157 230,157 c -10.89231,0 -11.99978,0.99728 -12.00079,10.8067 -6.5e-4,6.39167 -0.48579,8.71849 -2.86739,13.75268 -6.03803,12.76311 -19.4788,20.06223 -38.53622,20.92742 -5.00258,0.22711 -11.1206,0.0306 -13.5956,-0.43677 z m 28.729,-6.2283 c 8.72531,-2.80699 14.47987,-6.91388 18.52941,-13.22398 2.82022,-4.39455 3.28875,-6.08131 3.60437,-12.97632 0.52007,-11.36118 -2.26265,-18.68634 -8.8621,-23.3284 -5.73819,-4.03626 -34.72548,-5.70487 -48.6477,-2.80034 -9.52955,1.9881 -9.64776,2.04628 -13.23997,6.51631 -4.44074,5.5259 -5.1158,7.95326 -5.09105,18.3061 0.0169,7.06652 0.49177,10.22277 2.05895,13.6849 5.27642,11.65637 13.94613,15.82359 33.14809,15.9331 9.44039,0.0539 13.05019,-0.35813 18.5,-2.11137 z m 108,0 c 8.72531,-2.80699 14.47987,-6.91388 18.52941,-13.22398 2.82022,-4.39455 3.28875,-6.08131 3.60437,-12.97632 0.41689,-9.10723 -0.90389,-14.52516 -4.70269,-19.29068 -3.69225,-4.63186 -8.36527,-6.67543 -13.51678,-5.91106 -2.48372,0.36853 -6.466,0.007 -9.9421,-0.90246 -7.44508,-1.94798 -20.18355,-1.93652 -29.5936,0.0266 -8.10941,1.69179 -9.56497,2.45729 -13.43778,7.06709 -3.89632,4.63777 -4.67205,7.59256 -4.64787,17.70416 0.0169,7.06652 0.49177,10.22277 2.05895,13.6849 5.27642,11.65637 13.94613,15.82359 33.14809,15.9331 9.44039,0.0539 13.05019,-0.35813 18.5,-2.11137 z m -54.01921,-56.35449 c 10.1079,-3.3224 16.59395,-4.81208 24.29021,-5.57884 11.75194,-1.17082 30.40439,-0.43449 42.5,1.67773 11.85121,2.06955 10.8896,2.85346 10.20127,-8.31613 -0.70924,-11.50874 -1.92076,-17.89934 -5.45039,-28.75 -4.17808,-12.844116 -8.17534,-17.99914 -24.40959,-31.479572 -2.96707,-2.463765 -7.3574,-6.901827 -9.7563,-9.86236 l -4.36162,-5.382788 -5.61169,0.618744 c -17.04078,1.878914 -32.05024,2.484295 -63.02327,2.541936 L 175.67682,55 l -5.58841,6.217297 c -3.07362,3.419513 -8.12019,8.707013 -11.21458,11.75 -12.55311,12.344568 -20.98828,33.034893 -23.50143,57.645863 -0.38135,3.73441 -0.23053,6.35649 0.38758,6.7385 0.5565,0.34394 3.87567,-0.006 7.37592,-0.77723 19.89059,-4.38365 20.00209,-4.39538 33.65989,-3.5398 23.1617,1.45094 27.35256,2.20796 40.23968,7.26881 11.85542,4.65569 11.97686,4.65215 28.67432,-0.8362 z"
       id="path1961"
       inkscape:connector-curvature="0" />
    <path
       style="fill:#262c30"
       d="m 219.5,459.07099 c -7.05783,-0.48402 -8.13681,-0.7378 -5,-1.176 l 4,-0.55878 -4.5,-0.19588 c -5.45543,-0.23745 -28.88914,-3.69614 -29.55517,-4.36217 -0.77366,-0.77365 -4.26456,-18.59658 -5.4408,-27.77816 -0.5989,-4.675 -1.99332,-14.125 -3.0987,-21 -1.50849,-9.38215 -2.15348,-19.54634 -2.58588,-40.75 -0.31685,-15.5375 -0.26363,-28.25 0.11826,-28.25 0.38189,0 3.55373,2.90193 7.04853,6.44872 12.16858,12.34962 27.92897,17.96308 50.51376,17.99175 21.3723,0.0271 37.57142,-5.52165 49.45537,-16.94022 3.14844,-3.02514 5.90897,-5.50025 6.13453,-5.50025 1.03896,0 0.23335,42.94898 -1.02958,54.88931 -2.40127,22.70264 -8.4146,59.2983 -10.00515,60.88885 -0.68281,0.68281 -24.20997,4.13444 -29.55517,4.33598 l -4.5,0.16967 4,0.71619 c 3.35029,0.59986 2.76149,0.73924 -3.625,0.85809 -4.19375,0.0781 -8.91875,0.29676 -10.5,0.48601 -1.58125,0.18926 -6.925,0.0664 -11.875,-0.27311 z M 204.79069,245.6044 c -3.02104,-3.78625 -5.38747,-11.62106 -4.33001,-14.33595 0.57425,-1.47434 0.90884,-1.24928 2.01184,1.35325 2.60797,6.15349 3.61346,6.3783 28.52712,6.3783 h 22.55464 l 3.30677,-3.02027 3.30676,-3.02026 -0.71131,3.27026 c -1.01648,4.67331 -2.06261,6.87677 -4.82309,10.15883 l -2.42951,2.88856 -4.60812,-2.23075 c -3.75408,-1.81732 -5.67263,-2.12509 -10.35195,-1.66061 -3.15911,0.31358 -6.41883,0.57014 -7.24383,0.57014 -0.825,0 -4.08472,-0.25656 -7.24383,-0.57014 -4.59434,-0.45604 -6.60876,-0.15144 -10.06573,1.52205 -2.37704,1.1507 -4.51731,2.09218 -4.75616,2.09216 -0.23886,-2e-5 -1.65347,-1.52802 -3.14359,-3.39557 z M 163,202.05003 c -7.23029,-1.36524 -15.21369,-4.86027 -19.22505,-8.41647 -5.72115,-5.07199 -9.58962,-14.34419 -10.40226,-24.93284 C 132.62193,158.91849 131.32595,157 125.46862,157 c -4.94798,0 -6.65479,-1.88269 -6.28656,-6.93442 0.22661,-3.10888 0.89123,-4.67841 2.31365,-5.46374 1.09764,-0.60601 3.29213,-1.96057 4.87665,-3.01012 l 2.88095,-1.90828 -0.68349,-14.09172 c -1.18071,-24.34315 2.46298,-50.081221 9.08044,-64.141882 8.27408,-17.58063 20.2982,-29.340141 39.6174,-38.745569 8.65151,-4.211931 19.20163,-6.489834 42.23234,-9.118498 19.51342,-2.227208 24.86242,-3.307425 33.76817,-6.8193944 4.2725,-1.6848509 8.02146,-2.8100838 8.33102,-2.5005174 0.30957,0.3095665 0.0764,1.4718053 -0.51817,2.582753 -3.03993,5.6801618 0.73183,6.7919288 8.43527,2.4863913 l 4.7682,-2.6649966 -0.67018,3.5723521 c -0.80349,4.282981 0.35714,4.984191 5.38569,3.253831 1.925,-0.662406 5.1875,-1.515424 7.25,-1.895596 4.33296,-0.798675 4.64482,0.01354 2.22704,5.800119 -1.87104,4.478032 -1.20083,5.896148 5.00931,10.599287 10.108,7.655119 19.45041,16.394918 22.78787,21.317986 5.96813,8.803556 10.33264,21.634967 11.79685,34.682014 1.48625,13.243494 1.76455,34.6683 0.61051,47 l -0.79545,8.5 6.30693,3 c 6.2313,2.96402 6.31075,3.05353 6.62488,7.46374 C 341.19529,155.26146 339.51069,157 334,157 c -6.16781,0 -7.42241,1.71092 -7.63659,10.41412 -0.38259,15.54673 -9.41112,27.1853 -25.08497,32.33673 -6.42847,2.1128 -9.7743,2.5695 -19.27844,2.63147 -19.66957,0.12826 -30.3888,-5.17832 -36.75,-18.19318 -2.90924,-5.95223 -3.25,-7.563 -3.25,-15.36258 C 242,157.86514 241.12217,157 230,157 c -10.89231,0 -11.99978,0.99728 -12.00079,10.8067 -6.5e-4,6.39167 -0.48579,8.71849 -2.86739,13.75268 -6.03803,12.76311 -19.4788,20.06223 -38.53622,20.92742 -5.00258,0.22711 -11.1206,0.0306 -13.5956,-0.43677 z m 28.729,-6.2283 c 8.72531,-2.80699 14.47987,-6.91388 18.52941,-13.22398 2.82022,-4.39455 3.28875,-6.08131 3.60437,-12.97632 0.52007,-11.36118 -2.26265,-18.68634 -8.8621,-23.3284 -5.73819,-4.03626 -34.72548,-5.70487 -48.6477,-2.80034 -9.52955,1.9881 -9.64776,2.04628 -13.23997,6.51631 -4.44074,5.5259 -5.1158,7.95326 -5.09105,18.3061 0.0169,7.06652 0.49177,10.22277 2.05895,13.6849 5.27642,11.65637 13.94613,15.82359 33.14809,15.9331 9.44039,0.0539 13.05019,-0.35813 18.5,-2.11137 z m 108,0 c 8.72531,-2.80699 14.47987,-6.91388 18.52941,-13.22398 2.82022,-4.39455 3.28875,-6.08131 3.60437,-12.97632 0.41689,-9.10723 -0.90389,-14.52516 -4.70269,-19.29068 -3.69225,-4.63186 -8.36527,-6.67543 -13.51678,-5.91106 -2.48372,0.36853 -6.466,0.007 -9.9421,-0.90246 -7.44508,-1.94798 -20.18355,-1.93652 -29.5936,0.0266 -8.10941,1.69179 -9.56497,2.45729 -13.43778,7.06709 -3.89632,4.63777 -4.67205,7.59256 -4.64787,17.70416 0.0169,7.06652 0.49177,10.22277 2.05895,13.6849 5.27642,11.65637 13.94613,15.82359 33.14809,15.9331 9.44039,0.0539 13.05019,-0.35813 18.5,-2.11137 z m -54.01921,-56.35449 c 10.1079,-3.3224 16.59395,-4.81208 24.29021,-5.57884 11.75194,-1.17082 30.40439,-0.43449 42.5,1.67773 11.85121,2.06955 10.8896,2.85346 10.20127,-8.31613 -0.70924,-11.50874 -1.92076,-17.89934 -5.45039,-28.75 -4.17808,-12.844116 -8.17534,-17.99914 -24.40959,-31.479572 -2.96707,-2.463765 -7.3574,-6.901827 -9.7563,-9.86236 l -4.36162,-5.382788 -5.61169,0.618744 c -17.04078,1.878914 -32.05024,2.484295 -63.02327,2.541936 L 175.67682,55 l -5.58841,6.217297 c -3.07362,3.419513 -8.12019,8.707013 -11.21458,11.75 -12.55311,12.344568 -20.98828,33.034893 -23.50143,57.645863 -0.38135,3.73441 -0.23053,6.35649 0.38758,6.7385 0.5565,0.34394 3.87567,-0.006 7.37592,-0.77723 19.89059,-4.38365 20.00209,-4.39538 33.65989,-3.5398 23.1617,1.45094 27.35256,2.20796 40.23968,7.26881 11.85542,4.65569 11.97686,4.65215 28.67432,-0.8362 z"
       id="path1959"
       inkscape:connector-curvature="0" />
    <path
       style="fill:#2b1a17"
       d="m 204.79069,245.6044 c -3.02104,-3.78625 -5.38747,-11.62106 -4.33001,-14.33595 0.57425,-1.47434 0.90884,-1.24928 2.01184,1.35325 2.60797,6.15349 3.61346,6.3783 28.52712,6.3783 h 22.55464 l 3.30677,-3.02027 3.30676,-3.02026 -0.71131,3.27026 c -1.01648,4.67331 -2.06261,6.87677 -4.82309,10.15883 l -2.42951,2.88856 -4.60812,-2.23075 c -3.75408,-1.81732 -5.67263,-2.12509 -10.35195,-1.66061 -3.15911,0.31358 -6.41883,0.57014 -7.24383,0.57014 -0.825,0 -4.08472,-0.25656 -7.24383,-0.57014 -4.59434,-0.45604 -6.60876,-0.15144 -10.06573,1.52205 -2.37704,1.1507 -4.51731,2.09218 -4.75616,2.09216 -0.23886,-2e-5 -1.65347,-1.52802 -3.14359,-3.39557 z M 129.4435,130.25 c -1.06415,-11.34205 0.15182,-33.995769 2.56305,-47.75 4.97966,-28.405135 17.46968,-45.065405 44.19428,-58.950169 7.5956,-3.946293 10.5172,-4.83074 23,-6.962726 7.86454,-1.343216 19.69917,-2.952172 26.29917,-3.575458 13.78529,-1.301846 17.03856,-2.018 27.8613,-6.1332129 4.32372,-1.6440388 8.0694,-2.7810664 8.32374,-2.5267281 0.25434,0.2543383 -0.26414,1.8674674 -1.15217,3.5847313 -2.87204,5.5539037 -0.45145,6.4570057 6.87111,2.5635627 5.98662,-3.183121 6.67392,-3.1395226 5.97028,0.37872 -0.31976,1.598784 -0.10092,3.17218 0.4922,3.538746 0.58737,0.363014 4.25661,-0.308502 8.15387,-1.492259 3.89726,-1.183756 7.37919,-1.859017 7.73763,-1.50058 0.35844,0.358437 0.0639,2.097029 -0.65446,3.863538 -2.89263,7.112921 -3.03695,6.83144 8.27151,16.132397 5.80683,4.775991 12.76795,11.163269 15.46915,14.193951 6.55778,7.357666 11.76551,19.699699 13.87604,32.885487 1.7991,11.240101 2.33333,43.13002 0.89141,53.21112 -0.77511,5.41913 -1.10614,6.09458 -2.59608,5.29719 -1.34572,-0.72021 -1.83715,-2.88456 -2.31847,-10.21112 -0.73284,-11.15516 -1.98305,-17.65096 -5.44618,-28.29719 -4.17808,-12.844116 -8.17534,-17.99914 -24.40959,-31.479572 -2.96707,-2.463765 -7.3574,-6.901827 -9.7563,-9.86236 l -4.36162,-5.382788 -5.61169,0.618744 c -17.04078,1.878914 -32.05024,2.484295 -63.02327,2.541936 L 175.67682,55 l -5.58841,6.217297 c -3.07362,3.419513 -8.12019,8.707013 -11.21458,11.75 -12.28403,12.079962 -20.18835,31.111153 -23.48,56.532703 -0.96472,7.45057 -1.37555,8.5 -3.32756,8.5 -1.63523,0 -1.99552,-1.06463 -2.62277,-7.75 z"
       id="path1957"
       inkscape:connector-curvature="0" />
  </g>
</svg>
